<svg width="808" height="784" viewBox="0 0 808 784" fill="none" xmlns="http://www.w3.org/2000/svg">
<mask id="mask0_129_345" style="mask-type:luminance" maskUnits="userSpaceOnUse" x="0" y="0" width="809" height="784">
<path d="M9.508 413.831C-3.16932 401.543 -3.16934 381.621 9.50798 369.333L381.046 9.21572C393.723 -3.07189 414.277 -3.07191 426.955 9.2157L798.493 369.333C811.171 381.621 811.171 401.543 798.493 413.831L426.955 773.947C414.277 786.235 393.723 786.235 381.046 773.947L9.508 413.831Z" fill="white"/>
</mask>
<g mask="url(#mask0_129_345)">
<g filter="url(#filter0_d_129_345)">
<path fill-rule="evenodd" clip-rule="evenodd" d="M9.05507 377.23C-2.38619 388.49 -2.38619 406.747 9.05504 418.007L383.282 786.318C393.396 796.273 409.067 797.427 420.469 789.781L387.022 783.566C387.022 783.566 376.033 766.129 371.211 758.272C357.932 737.799 340.001 704.906 327.102 681.243L327.1 681.238L327.096 681.231C322.098 672.062 317.855 664.279 314.932 659.144C308.003 647.923 303.68 641.145 300.276 635.808L300.275 635.807C291.513 622.07 288.838 617.877 263.48 572.012C259.048 563.995 254.896 556.514 250.992 549.48L250.984 549.468L250.974 549.447L250.966 549.434C214.932 484.514 200.061 457.719 181.255 399.342C160.408 334.628 157.577 302.758 162.065 311.923C181.645 351.898 200.159 380.62 223.734 417.195C247.781 454.502 277.092 499.976 318.171 573.893C308.282 521.675 300.344 460.483 298.362 393.469C359.799 502.365 391.546 768.303 391.546 768.303C391.546 768.303 397.33 561.056 404.189 413.415C398.605 406.857 393.95 398.168 398.158 391.711C401.71 386.261 399.653 381.055 397.472 375.532C395.879 371.498 394.219 367.295 394.627 362.705C396.014 347.1 389.218 333.561 384.823 324.805C383.713 322.593 382.756 320.687 382.124 319.13C381.387 317.316 380.276 315.177 379.035 312.788C374.994 305.005 369.575 294.571 371.208 284.096C373.005 272.583 371.357 266.113 369.742 259.779C369.437 258.582 369.133 257.388 368.854 256.168C367.766 251.408 372.28 248.193 375.846 245.652C378.035 244.093 379.867 242.789 379.829 241.537C379.79 240.222 377.88 237.107 375.578 233.355C372.115 227.71 367.769 220.626 367.582 216.064C367.39 211.397 369.544 206.91 371.473 202.888L371.474 202.887C372.685 200.361 373.808 198.02 374.209 195.933C374.686 193.442 373.969 186.694 373.233 179.764C372.368 171.629 371.478 163.241 372.46 161.192C373.211 159.626 372.994 155.777 372.764 151.693C372.437 145.875 372.082 139.58 374.457 138.722C376.999 137.803 381.698 141.82 386.018 145.513C388.567 147.693 390.984 149.759 392.748 150.632L392.919 150.716C398.25 153.352 407.737 158.042 411.376 174.308C415.997 178.282 426.147 188.892 429.456 196.365C432.763 203.838 429.639 233.158 429.639 233.158C430.807 237.212 434.628 241.856 438.465 246.519C443.043 252.082 447.642 257.672 447.779 262.317C450.376 269.729 448.798 296.762 448.798 296.762C448.798 296.762 447.478 315.46 442.538 321.27C437.599 327.08 438.564 342.741 440.054 350.168C441.544 357.596 433.67 369.46 433.67 369.46C433.67 369.46 432.386 385.53 429.811 394.481C428.124 400.342 421.394 410.132 416.948 416.194C415.334 480.984 412.726 556.809 410.312 621.434C415.593 609.807 417.371 606.969 423.785 596.725C426.554 592.303 430.186 586.5 435.337 578.018C443.222 565.033 454.402 548.067 465.547 531.155L465.548 531.154C483.036 504.616 500.435 478.212 504.866 467.545C506.095 464.587 507.516 461.274 509.045 457.709C516.546 440.221 526.652 416.664 529.4 399.145C536.734 428.199 536.839 465.447 531.923 484.457C527.006 503.467 497.685 554.784 481.91 576.604C479.281 580.239 476.318 584.293 473.106 588.688L473.08 588.724L473.078 588.726L473.077 588.728L473.076 588.729C454.196 614.56 426.713 652.16 407.827 685.99C405.89 734.962 404.471 767.911 404.471 767.911C404.471 767.911 422.793 691.496 482.181 602.58C541.569 513.666 602.629 401.798 608.573 384.052C614.517 366.306 634.109 305.325 604.378 242.19C634.592 271.154 662.047 341.442 649.043 389.654C636.038 437.867 589.644 528.08 557.521 575.896C463.478 715.891 422.011 781.363 421.204 789.272C422.432 788.393 423.606 787.408 424.713 786.318L798.94 418.007C810.381 406.746 810.381 388.49 798.94 377.23L424.714 8.91898C413.273 -2.34148 394.723 -2.34148 383.282 8.91896L9.05507 377.23Z" fill="white"/>
<path fill-rule="evenodd" clip-rule="evenodd" d="M9.05507 377.23C-2.38619 388.49 -2.38619 406.747 9.05504 418.007L383.282 786.318C393.396 796.273 409.067 797.427 420.469 789.781L387.022 783.566C387.022 783.566 376.033 766.129 371.211 758.272C357.932 737.799 340.001 704.906 327.102 681.243L327.1 681.238L327.096 681.231C322.098 672.062 317.855 664.279 314.932 659.144C308.003 647.923 303.68 641.145 300.276 635.808L300.275 635.807C291.513 622.07 288.838 617.877 263.48 572.012C259.048 563.995 254.896 556.514 250.992 549.48L250.984 549.468L250.974 549.447L250.966 549.434C214.932 484.514 200.061 457.719 181.255 399.342C160.408 334.628 157.577 302.758 162.065 311.923C181.645 351.898 200.159 380.62 223.734 417.195C247.781 454.502 277.092 499.976 318.171 573.893C308.282 521.675 300.344 460.483 298.362 393.469C359.799 502.365 391.546 768.303 391.546 768.303C391.546 768.303 397.33 561.056 404.189 413.415C398.605 406.857 393.95 398.168 398.158 391.711C401.71 386.261 399.653 381.055 397.472 375.532C395.879 371.498 394.219 367.295 394.627 362.705C396.014 347.1 389.218 333.561 384.823 324.805C383.713 322.593 382.756 320.687 382.124 319.13C381.387 317.316 380.276 315.177 379.035 312.788C374.994 305.005 369.575 294.571 371.208 284.096C373.005 272.583 371.357 266.113 369.742 259.779C369.437 258.582 369.133 257.388 368.854 256.168C367.766 251.408 372.28 248.193 375.846 245.652C378.035 244.093 379.867 242.789 379.829 241.537C379.79 240.222 377.88 237.107 375.578 233.355C372.115 227.71 367.769 220.626 367.582 216.064C367.39 211.397 369.544 206.91 371.473 202.888L371.474 202.887C372.685 200.361 373.808 198.02 374.209 195.933C374.686 193.442 373.969 186.694 373.233 179.764C372.368 171.629 371.478 163.241 372.46 161.192C373.211 159.626 372.994 155.777 372.764 151.693C372.437 145.875 372.082 139.58 374.457 138.722C376.999 137.803 381.698 141.82 386.018 145.513C388.567 147.693 390.984 149.759 392.748 150.632L392.919 150.716C398.25 153.352 407.737 158.042 411.376 174.308C415.997 178.282 426.147 188.892 429.456 196.365C432.763 203.838 429.639 233.158 429.639 233.158C430.807 237.212 434.628 241.856 438.465 246.519C443.043 252.082 447.642 257.672 447.779 262.317C450.376 269.729 448.798 296.762 448.798 296.762C448.798 296.762 447.478 315.46 442.538 321.27C437.599 327.08 438.564 342.741 440.054 350.168C441.544 357.596 433.67 369.46 433.67 369.46C433.67 369.46 432.386 385.53 429.811 394.481C428.124 400.342 421.394 410.132 416.948 416.194C415.334 480.984 412.726 556.809 410.312 621.434C415.593 609.807 417.371 606.969 423.785 596.725C426.554 592.303 430.186 586.5 435.337 578.018C443.222 565.033 454.402 548.067 465.547 531.155L465.548 531.154C483.036 504.616 500.435 478.212 504.866 467.545C506.095 464.587 507.516 461.274 509.045 457.709C516.546 440.221 526.652 416.664 529.4 399.145C536.734 428.199 536.839 465.447 531.923 484.457C527.006 503.467 497.685 554.784 481.91 576.604C479.281 580.239 476.318 584.293 473.106 588.688L473.08 588.724L473.078 588.726L473.077 588.728L473.076 588.729C454.196 614.56 426.713 652.16 407.827 685.99C405.89 734.962 404.471 767.911 404.471 767.911C404.471 767.911 422.793 691.496 482.181 602.58C541.569 513.666 602.629 401.798 608.573 384.052C614.517 366.306 634.109 305.325 604.378 242.19C634.592 271.154 662.047 341.442 649.043 389.654C636.038 437.867 589.644 528.08 557.521 575.896C463.478 715.891 422.011 781.363 421.204 789.272C422.432 788.393 423.606 787.408 424.713 786.318L798.94 418.007C810.381 406.746 810.381 388.49 798.94 377.23L424.714 8.91898C413.273 -2.34148 394.723 -2.34148 383.282 8.91896L9.05507 377.23Z" stroke="white" stroke-width="0.968576"/>
</g>
</g>
<defs>
<filter id="filter0_d_129_345" x="-4.01025" y="-0.0107422" width="816.016" height="803.259" filterUnits="userSpaceOnUse" color-interpolation-filters="sRGB">
<feFlood flood-opacity="0" result="BackgroundImageFix"/>
<feColorMatrix in="SourceAlpha" type="matrix" values="0 0 0 0 0 0 0 0 0 0 0 0 0 0 0 0 0 0 127 0" result="hardAlpha"/>
<feOffset dy="4"/>
<feGaussianBlur stdDeviation="2"/>
<feComposite in2="hardAlpha" operator="out"/>
<feColorMatrix type="matrix" values="0 0 0 0 0 0 0 0 0 0 0 0 0 0 0 0 0 0 0.25 0"/>
<feBlend mode="normal" in2="BackgroundImageFix" result="effect1_dropShadow_129_345"/>
<feBlend mode="normal" in="SourceGraphic" in2="effect1_dropShadow_129_345" result="shape"/>
</filter>
</defs>
</svg>
