<svg width="925" height="877" viewBox="0 0 925 877" fill="none" xmlns="http://www.w3.org/2000/svg">
<mask id="mask0_206_964" style="mask-type:alpha" maskUnits="userSpaceOnUse" x="0" y="0" width="925" height="877">
<path d="M9.61984 460.235C-3.20662 448.077 -3.20661 428.365 9.61985 416.207L439.085 9.11861C451.911 -3.03954 472.707 -3.03953 485.534 9.11862L914.999 416.207C927.825 428.365 927.825 448.077 914.999 460.235L485.534 867.323C472.707 879.481 451.911 879.481 439.085 867.323L9.61984 460.235Z" fill="#4CB05B"/>
</mask>
<g mask="url(#mask0_206_964)">
<path fill-rule="evenodd" clip-rule="evenodd" d="M-7.98262 416.84C-20.0074 428.238 -20.0074 446.719 -7.98259 458.117L440.725 883.444C452.227 894.346 470.564 894.82 482.661 884.866L442.4 877.661C442.4 877.661 429.254 857.572 423.589 848.677C407.872 825.316 386.689 787.89 371.442 760.951L371.442 760.949L371.441 760.948L371.44 760.946C365.518 750.483 360.492 741.603 357.029 735.743C348.823 722.944 343.703 715.214 339.672 709.126C329.294 693.457 326.127 688.674 296.096 636.361C290.839 627.203 285.916 618.66 281.287 610.627L281.276 610.608C238.603 536.561 220.99 505.999 198.719 439.414C174.03 365.601 170.677 329.251 175.993 339.704C199.181 385.3 221.107 418.061 249.026 459.778L249.026 459.778C277.502 502.328 312.214 554.194 360.86 638.497C349.149 578.941 339.75 509.15 337.404 432.719C410.161 556.926 447.758 860.251 447.758 860.251C447.758 860.251 454.608 623.879 462.731 455.481C456.118 448.001 450.607 438.092 455.59 430.728C459.795 424.512 457.36 418.573 454.777 412.273C452.89 407.672 450.925 402.878 451.408 397.642C453.051 379.844 445.002 364.401 439.798 354.415C438.483 351.892 437.35 349.717 436.601 347.941C435.728 345.873 434.412 343.433 432.943 340.708L432.942 340.708C428.156 331.831 421.739 319.929 423.674 307.983C425.801 294.851 423.849 287.471 421.937 280.246C421.576 278.88 421.216 277.52 420.886 276.127C419.597 270.698 424.943 267.031 429.167 264.133C431.758 262.355 433.927 260.867 433.884 259.44C433.838 257.94 431.574 254.387 428.848 250.107C424.747 243.67 419.6 235.589 419.379 230.385C419.153 225.063 421.702 219.944 423.988 215.356L423.988 215.355C425.423 212.475 426.753 209.804 427.227 207.423C427.793 204.583 426.944 196.887 426.072 188.982V188.982V188.981C425.048 179.702 423.993 170.136 425.156 167.798C426.045 166.012 425.788 161.623 425.516 156.964V156.964C425.129 150.329 424.709 143.148 427.522 142.169C430.532 141.121 436.096 145.703 441.212 149.915L441.212 149.915C444.231 152.401 447.094 154.758 449.183 155.754L449.386 155.85C455.698 158.856 466.934 164.206 471.242 182.759C476.716 187.291 488.736 199.393 492.654 207.917C496.572 216.44 492.872 249.882 492.872 249.882C494.255 254.507 498.78 259.804 503.324 265.122C508.745 271.467 514.192 277.843 514.355 283.14C517.43 291.595 515.561 322.43 515.561 322.43C515.561 322.43 513.997 343.757 508.148 350.383C502.299 357.009 503.442 374.872 505.206 383.344C506.97 391.816 497.645 405.348 497.645 405.348C497.645 405.348 496.125 423.677 493.075 433.887C491.077 440.572 483.106 451.74 477.84 458.655C475.929 532.552 472.841 619.035 469.981 692.742C476.236 679.48 478.342 676.242 485.937 664.558L485.938 664.557L485.94 664.555C489.218 659.511 493.52 652.895 499.619 643.22C508.956 628.411 522.196 609.06 535.394 589.772L535.395 589.77C556.107 559.5 576.713 529.384 581.96 517.216C583.414 513.843 585.096 510.066 586.907 506.001L586.909 505.997C595.793 486.051 607.76 459.182 611.015 439.2C619.7 472.338 619.825 514.823 614.002 536.506C608.179 558.19 573.455 616.72 554.773 641.608C551.652 645.766 548.132 650.404 544.316 655.433L544.314 655.435C521.955 684.896 489.406 727.786 467.04 766.373C464.746 822.228 463.065 859.804 463.065 859.804C463.065 859.804 484.763 772.646 555.095 671.23C625.426 569.814 697.738 442.219 704.777 421.978C711.817 401.737 735.019 332.182 699.81 260.171C735.591 293.208 768.105 373.377 752.705 428.368C737.304 483.359 682.359 586.255 644.318 640.795C530.454 804.044 481.671 878.447 482.89 884.676C483.36 884.281 483.82 883.87 484.27 883.444L932.978 458.117C945.002 446.719 945.002 428.238 932.978 416.84L484.27 -8.48648C472.246 -19.8847 452.749 -19.8847 440.725 -8.48645L-7.98262 416.84Z" fill="white"/>
</g>
</svg>
