#define cross_width 9
#define cross_height 9
static unsigned char cross_bits[] = {
   0x38, 0x00, 0x38, 0x00, 0x38, 0x00, 0xff, 0x01, 0xff, 0x01, 0xff, 0x01,
   0x38, 0x00, 0x38, 0x00, 0x38, 0x00 };
