#define cross45_width 9
#define cross45_height 9
static unsigned char cross45_bits[] = {
   0x82, 0x00, 0xc7, 0x01, 0xee, 0x00, 0x7c, 0x00, 0x38, 0x00, 0x7c, 0x00,
   0xee, 0x00, 0xc7, 0x01, 0x82, 0x00 };
