<?xml version="1.0" encoding="UTF-8" standalone="no"?>
<!-- Created with Inkscape (http://www.inkscape.org/) -->

<svg
   width="387.69498mm"
   height="135.48436mm"
   viewBox="0 0 387.69498 135.48436"
   version="1.1"
   id="svg1207"
   inkscape:version="1.2.2 (b0a8486541, 2022-12-01)"
   sodipodi:docname="project.svg"
   inkscape:export-filename="../grass-gis-workshop-foss4gna-2023/img/data_structure1.png"
   inkscape:export-xdpi="159.68"
   inkscape:export-ydpi="159.68"
   xml:space="preserve"
   xmlns:inkscape="http://www.inkscape.org/namespaces/inkscape"
   xmlns:sodipodi="http://sodipodi.sourceforge.net/DTD/sodipodi-0.dtd"
   xmlns="http://www.w3.org/2000/svg"
   xmlns:svg="http://www.w3.org/2000/svg"
   xmlns:rdf="http://www.w3.org/1999/02/22-rdf-syntax-ns#"
   xmlns:cc="http://creativecommons.org/ns#"
   xmlns:dc="http://purl.org/dc/elements/1.1/"><defs
     id="defs1201"><rect
       x="291.0947"
       y="1876.4363"
       width="87.661285"
       height="56.273033"
       id="rect55293" /></defs><sodipodi:namedview
     id="base"
     pagecolor="#ffffff"
     bordercolor="#666666"
     borderopacity="1.0"
     inkscape:pageopacity="0.0"
     inkscape:pageshadow="2"
     inkscape:zoom="0.4635966"
     inkscape:cx="749.57409"
     inkscape:cy="-135.89401"
     inkscape:document-units="mm"
     inkscape:current-layer="layer1"
     showgrid="false"
     fit-margin-top="0"
     fit-margin-left="0"
     fit-margin-right="0"
     fit-margin-bottom="0"
     inkscape:window-width="1640"
     inkscape:window-height="1247"
     inkscape:window-x="1327"
     inkscape:window-y="156"
     inkscape:window-maximized="0"
     inkscape:showpageshadow="2"
     inkscape:pagecheckerboard="0"
     inkscape:deskcolor="#d1d1d1" /><metadata
     id="metadata1204"><rdf:RDF><cc:Work
         rdf:about=""><dc:format>image/svg+xml</dc:format><dc:type
           rdf:resource="http://purl.org/dc/dcmitype/StillImage" /></cc:Work></rdf:RDF></metadata><g
     inkscape:label="Layer 1"
     inkscape:groupmode="layer"
     id="layer1"
     transform="translate(50.54264,-521.66297)"><path
       inkscape:connector-curvature="0"
       id="path16-3-3"
       style="fill:#eeeeee;fill-opacity:1;fill-rule:nonzero;stroke:none;stroke-width:1.15859"
       d="M -50.54264,535.87569 H 337.15234 V 657.14734 H -50.54264 Z"
       inkscape:export-filename="project.png"
       inkscape:export-xdpi="98.273132"
       inkscape:export-ydpi="98.273132" /><flowRoot
       xml:space="preserve"
       id="flowRoot1752-6-6"
       style="font-style:normal;font-variant:normal;font-weight:normal;font-stretch:normal;font-size:40px;line-height:1.25;font-family:cmr10;-inkscape-font-specification:cmr10;letter-spacing:0px;word-spacing:0px;fill:#000000;fill-opacity:1;stroke:none"
       transform="matrix(0.26458333,0,0,0.26458333,-64.808474,464.03658)"><flowRegion
         id="flowRegion1754-7-7"><rect
           id="rect1756-5-5"
           width="1174.6663"
           height="280.63211"
           x="60.014626"
           y="210.06049" /></flowRegion><flowPara
         id="flowPara1758-3-3"
         style="font-style:normal;font-variant:normal;font-weight:normal;font-stretch:normal;font-family:Lato;-inkscape-font-specification:Lato">raleigh_northcarolina_usa_epsg32119</flowPara></flowRoot><path
       inkscape:connector-curvature="0"
       id="path18-9-1"
       style="fill:#cacaca;fill-opacity:1;fill-rule:nonzero;stroke:none;stroke-width:0.990264"
       d="M -38.73477,558.28481 H 74.790437 v 78.18983 H -38.73477 Z" /><flowRoot
       transform="matrix(0.26458333,0,0,0.26458333,-50.982406,489.2044)"
       xml:space="preserve"
       id="flowRoot1752-8-36-2"
       style="font-style:normal;font-variant:normal;font-weight:normal;font-stretch:normal;font-size:40px;line-height:1.25;font-family:cmr10;-inkscape-font-specification:cmr10;letter-spacing:0px;word-spacing:0px;fill:#000000;fill-opacity:1;stroke:none"><flowRegion
         id="flowRegion1754-1-0-7"><rect
           id="rect1756-2-6-0"
           width="506.5708"
           height="331.65976"
           x="60.014626"
           y="210.06049" /></flowRegion><flowPara
         id="flowPara1758-8-26-9"
         style="font-style:normal;font-variant:normal;font-weight:normal;font-stretch:normal;font-family:Lato;-inkscape-font-specification:Lato">PERMANENT</flowPara></flowRoot><g
       id="g2239-1-3"
       transform="translate(-62.639806,465.37965)"><g
         id="g28-5-9-8-6"
         transform="matrix(0.79097977,0,0,0.79097977,0.96106554,35.936889)"><path
           d="m 37.07,81.887 4.766,11.472 5.238,-11.363 4.309,-0.019"
           style="fill:none;stroke:#2b3b4d;stroke-width:1.125;stroke-linecap:round;stroke-linejoin:round;stroke-miterlimit:4;stroke-dasharray:none;stroke-opacity:1"
           id="path30-0-9-7-0"
           inkscape:connector-curvature="0" /></g><g
         id="g32-0-9-6"
         transform="matrix(0.79097977,0,0,0.79097977,0.96300465,35.936889)"><path
           d="m 38.332,81.887 c 0,0.695 -0.562,1.261 -1.262,1.261 -0.695,0 -1.258,-0.566 -1.258,-1.261 0,-0.696 0.563,-1.262 1.258,-1.262 0.7,0 1.262,0.566 1.262,1.262 z m 4.781,10.871 c 0,0.699 -0.566,1.262 -1.261,1.262 -0.696,0 -1.262,-0.563 -1.262,-1.262 0,-0.696 0.566,-1.262 1.262,-1.262 0.695,0 1.261,0.566 1.261,1.262 z m 5.09,-10.789 c 0,0.695 -0.566,1.261 -1.262,1.261 -0.699,0 -1.261,-0.566 -1.261,-1.261 0,-0.699 0.562,-1.262 1.261,-1.262 0.696,0 1.262,0.563 1.262,1.262 z m 4.438,0.008 c 0,0.699 -0.563,1.261 -1.258,1.261 -0.699,0 -1.262,-0.562 -1.262,-1.261 0,-0.696 0.563,-1.258 1.262,-1.258 0.695,0 1.258,0.562 1.258,1.258 z"
           style="fill:#eeeeec;fill-opacity:1;fill-rule:evenodd;stroke:#2b3b4d;stroke-width:0.75;stroke-linecap:round;stroke-linejoin:round;stroke-miterlimit:4;stroke-dasharray:none;stroke-opacity:1"
           id="path34-8-2-2"
           inkscape:connector-curvature="0" /></g></g><flowRoot
       transform="matrix(0.26458333,0,0,0.26458333,-29.100062,508.82083)"
       xml:space="preserve"
       id="flowRoot1752-8-3-0-6"
       style="font-style:normal;font-variant:normal;font-weight:normal;font-stretch:normal;font-size:40px;line-height:1.25;font-family:cmr10;-inkscape-font-specification:cmr10;letter-spacing:0px;word-spacing:0px;fill:#000000;fill-opacity:1;stroke:none"><flowRegion
         id="flowRegion1754-1-1-2-1"><rect
           id="rect1756-2-1-3-8"
           width="506.5708"
           height="331.65976"
           x="60.014626"
           y="210.06049" /></flowRegion><flowPara
         id="flowPara1758-8-0-7-7"
         style="font-style:normal;font-variant:normal;font-weight:normal;font-stretch:normal;font-family:Lato;-inkscape-font-specification:Lato">roads</flowPara></flowRoot><flowRoot
       transform="matrix(0.26458333,0,0,0.26458333,-28.793145,528.95626)"
       xml:space="preserve"
       id="flowRoot1752-8-3-3-5-5-9"
       style="font-style:normal;font-variant:normal;font-weight:normal;font-stretch:normal;font-size:40px;line-height:1.25;font-family:cmr10;-inkscape-font-specification:cmr10;letter-spacing:0px;word-spacing:0px;fill:#000000;fill-opacity:1;stroke:none"><flowRegion
         id="flowRegion1754-1-1-3-6-9-2"><rect
           id="rect1756-2-1-8-6-2-0"
           width="506.5708"
           height="331.65976"
           x="60.014626"
           y="210.06049" /></flowRegion><flowPara
         id="flowPara1758-8-0-0-4-2-2"
         style="font-style:normal;font-variant:normal;font-weight:normal;font-stretch:normal;font-family:Lato;-inkscape-font-specification:Lato">elevation</flowPara></flowRoot><flowRoot
       transform="matrix(0.26458333,0,0,0.26458333,-29.131812,549.62462)"
       xml:space="preserve"
       id="flowRoot1752-8-3-3-5-0-8-3"
       style="font-style:normal;font-variant:normal;font-weight:normal;font-stretch:normal;font-size:40px;line-height:1.25;font-family:cmr10;-inkscape-font-specification:cmr10;letter-spacing:0px;word-spacing:0px;fill:#000000;fill-opacity:1;stroke:none"><flowRegion
         id="flowRegion1754-1-1-3-6-0-9-75"><rect
           id="rect1756-2-1-8-6-4-7-9"
           width="506.5708"
           height="331.65976"
           x="60.014626"
           y="210.06049" /></flowRegion><flowPara
         id="flowPara1758-8-0-0-4-6-3-2"
         style="font-style:normal;font-variant:normal;font-weight:normal;font-stretch:normal;font-family:Lato;-inkscape-font-specification:Lato">landuse</flowPara></flowRoot><flowRoot
       transform="matrix(0.26458333,0,0,0.26458333,-50.112843,564.96253)"
       xml:space="preserve"
       id="flowRoot1752-8-3-3-5-0-8-4-2"
       style="font-style:normal;font-variant:normal;font-weight:normal;font-stretch:normal;font-size:40px;line-height:1.25;font-family:cmr10;-inkscape-font-specification:cmr10;letter-spacing:0px;word-spacing:0px;fill:#000000;fill-opacity:1;stroke:none"><flowRegion
         id="flowRegion1754-1-1-3-6-0-9-7-8"><rect
           id="rect1756-2-1-8-6-4-7-4-9"
           width="506.5708"
           height="331.65976"
           x="60.014626"
           y="210.06049" /></flowRegion><flowPara
         id="flowPara1758-8-0-0-4-6-3-4-7"
         style="font-style:normal;font-variant:normal;font-weight:normal;font-stretch:normal;font-family:Lato;-inkscape-font-specification:Lato">...</flowPara></flowRoot><g
       id="g2078-2-6-3"
       transform="translate(-69.072942,468.38151)"><path
         d="m 39.320745,116.2988 h 3.894656 v 3.89465 h -3.894656 z"
         style="fill:#6e97c4;fill-opacity:1;fill-rule:nonzero;stroke:none;stroke-width:0.798904"
         id="path36-4-6-1-6"
         inkscape:connector-curvature="0" /><path
         d="m 43.215401,116.2988 h 3.894656 v 3.89465 h -3.894656 z"
         style="fill:#253e5b;fill-opacity:1;fill-rule:nonzero;stroke:none;stroke-width:0.798904"
         id="path38-0-7-2-1"
         inkscape:connector-curvature="0" /><path
         d="m 39.320745,120.19345 h 3.894656 v 3.89466 h -3.894656 z"
         style="fill:#253e5b;fill-opacity:1;fill-rule:nonzero;stroke:none;stroke-width:0.798904"
         id="path40-3-5-9-2"
         inkscape:connector-curvature="0" /><path
         d="m 43.215401,120.19345 h 3.894656 v 3.89466 h -3.894656 z"
         style="fill:#6d97c4;fill-opacity:1;fill-rule:nonzero;stroke:none;stroke-width:0.798904"
         id="path42-9-6-3-9"
         inkscape:connector-curvature="0" /><path
         d="m 35.426091,116.2988 h 3.894654 v 3.89465 h -3.894654 z"
         style="fill:#253e5b;fill-opacity:1;fill-rule:nonzero;stroke:none;stroke-width:0.798904"
         id="path44-1-9-1-3"
         inkscape:connector-curvature="0" /><path
         d="m 35.426091,120.19345 h 3.894654 v 3.89466 h -3.894654 z"
         style="fill:#6d97c4;fill-opacity:1;fill-rule:nonzero;stroke:none;stroke-width:0.798904"
         id="path46-9-8-9-1"
         inkscape:connector-curvature="0" /><path
         d="m 39.320745,124.08811 h 3.894656 v 3.89467 h -3.894656 z"
         style="fill:#6d97c4;fill-opacity:1;fill-rule:nonzero;stroke:none;stroke-width:0.798904"
         id="path48-6-7-4-9"
         inkscape:connector-curvature="0" /><path
         d="m 35.426091,124.08811 h 3.894654 v 3.89467 h -3.894654 z"
         style="fill:#253e5b;fill-opacity:1;fill-rule:nonzero;stroke:none;stroke-width:0.798904"
         id="path50-9-2-7-4"
         inkscape:connector-curvature="0" /></g><g
       id="g2078-8-8-7"
       transform="translate(-69.072942,489.04987)"><path
         d="m 39.320745,116.2988 h 3.894656 v 3.89465 h -3.894656 z"
         style="fill:#6e97c4;fill-opacity:1;fill-rule:nonzero;stroke:none;stroke-width:0.798904"
         id="path36-4-2-4-8"
         inkscape:connector-curvature="0" /><path
         d="m 43.215401,116.2988 h 3.894656 v 3.89465 h -3.894656 z"
         style="fill:#253e5b;fill-opacity:1;fill-rule:nonzero;stroke:none;stroke-width:0.798904"
         id="path38-0-9-5-4"
         inkscape:connector-curvature="0" /><path
         d="m 39.320745,120.19345 h 3.894656 v 3.89466 h -3.894656 z"
         style="fill:#253e5b;fill-opacity:1;fill-rule:nonzero;stroke:none;stroke-width:0.798904"
         id="path40-3-9-0-5"
         inkscape:connector-curvature="0" /><path
         d="m 43.215401,120.19345 h 3.894656 v 3.89466 h -3.894656 z"
         style="fill:#6d97c4;fill-opacity:1;fill-rule:nonzero;stroke:none;stroke-width:0.798904"
         id="path42-9-60-3-0"
         inkscape:connector-curvature="0" /><path
         d="m 35.426091,116.2988 h 3.894654 v 3.89465 h -3.894654 z"
         style="fill:#253e5b;fill-opacity:1;fill-rule:nonzero;stroke:none;stroke-width:0.798904"
         id="path44-1-2-6-3"
         inkscape:connector-curvature="0" /><path
         d="m 35.426091,120.19345 h 3.894654 v 3.89466 h -3.894654 z"
         style="fill:#6d97c4;fill-opacity:1;fill-rule:nonzero;stroke:none;stroke-width:0.798904"
         id="path46-9-7-1-6"
         inkscape:connector-curvature="0" /><path
         d="m 39.320745,124.08811 h 3.894656 v 3.89467 h -3.894656 z"
         style="fill:#6d97c4;fill-opacity:1;fill-rule:nonzero;stroke:none;stroke-width:0.798904"
         id="path48-6-6-0-1"
         inkscape:connector-curvature="0" /><path
         d="m 35.426091,124.08811 h 3.894654 v 3.89467 h -3.894654 z"
         style="fill:#253e5b;fill-opacity:1;fill-rule:nonzero;stroke:none;stroke-width:0.798904"
         id="path50-9-1-6-0"
         inkscape:connector-curvature="0" /></g><path
       inkscape:connector-curvature="0"
       id="path18-0-3-6"
       style="fill:#cacaca;fill-opacity:1;fill-rule:nonzero;stroke:none;stroke-width:0.990266"
       d="M 86.542247,558.28439 H 200.06745 v 78.19 H 86.542247 Z" /><path
       inkscape:connector-curvature="0"
       id="path18-0-3-6-9"
       style="fill:#cacaca;fill-opacity:1;fill-rule:nonzero;stroke:none;stroke-width:0.990266"
       d="m 212.18385,558.28439 h 113.5252 v 78.19 h -113.5252 z" /><flowRoot
       style="font-style:normal;font-variant:normal;font-weight:normal;font-stretch:normal;font-size:40px;line-height:1.25;font-family:cmr10;-inkscape-font-specification:cmr10;letter-spacing:0px;word-spacing:0px;fill:#000000;fill-opacity:1;stroke:none"
       id="flowRoot2301-0-3"
       xml:space="preserve"
       transform="matrix(0.26458333,0,0,0.26458333,-54.506045,585.01548)"><flowRegion
         id="flowRegion2297-6-2"><rect
           y="210.06049"
           x="60.014626"
           height="54.367382"
           width="317.82434"
           id="rect2295-1-0" /></flowRegion><flowPara
         style="font-style:italic;font-variant:normal;font-weight:normal;font-stretch:normal;font-size:40px;font-family:Lato;-inkscape-font-specification:'Lato, Italic';font-variant-ligatures:normal;font-variant-caps:normal;font-variant-numeric:normal;font-feature-settings:normal;text-align:start;writing-mode:lr-tb;text-anchor:start"
         id="flowPara2299-5-6">EPSG: 32119</flowPara></flowRoot><flowRoot
       transform="matrix(0.26458333,0,0,0.26458333,29.787831,338.39267)"
       xml:space="preserve"
       id="flowRoot1064308-5"
       style="font-style:normal;font-variant:normal;font-weight:normal;font-stretch:normal;font-size:40px;line-height:1.25;font-family:cmr10;-inkscape-font-specification:cmr10;letter-spacing:0px;word-spacing:0px;fill:#000000;fill-opacity:1;stroke:none"><flowRegion
         id="flowRegion1064304-4"><rect
           id="rect1064302-7"
           width="506.5708"
           height="331.65976"
           x="60.014626"
           y="210.06049" /></flowRegion><flowPara
         id="flowPara1064306-6"
         style="font-style:normal;font-variant:normal;font-weight:normal;font-stretch:normal;font-family:Lato;-inkscape-font-specification:Lato" /></flowRoot><text
       xml:space="preserve"
       transform="matrix(0.26458333,0,0,0.26458333,12.149166,57.626394)"
       id="text55291"
       style="font-size:40px;line-height:1.25;font-family:cmr10;-inkscape-font-specification:cmr10;text-align:end;letter-spacing:0px;word-spacing:0px;white-space:pre;shape-inside:url(#rect55293);display:inline" /><flowRoot
       xml:space="preserve"
       id="flowRoot1752-6-6-1"
       style="font-style:normal;font-variant:normal;font-weight:normal;font-stretch:normal;font-size:40px;line-height:1.25;font-family:cmr10;-inkscape-font-specification:cmr10;letter-spacing:0px;word-spacing:0px;fill:#000000;fill-opacity:1;stroke:none"
       transform="matrix(0.26458333,0,0,0.26458333,73.289841,489.2679)"><flowRegion
         id="flowRegion1754-7-7-5"><rect
           id="rect1756-5-5-5"
           width="1174.6663"
           height="280.63211"
           x="60.014626"
           y="210.06049" /></flowRegion><flowPara
         id="flowPara1758-3-3-4"
         style="font-style:normal;font-variant:normal;font-weight:normal;font-stretch:normal;font-family:Lato;-inkscape-font-specification:Lato">viewsheds</flowPara></flowRoot><g
       id="g2239-1-3-3"
       transform="translate(65.019551,465.37965)"><g
         id="g28-5-9-8-6-7"
         transform="matrix(0.79097977,0,0,0.79097977,0.96106554,35.936889)"><path
           d="m 37.07,81.887 4.766,11.472 5.238,-11.363 4.309,-0.019"
           style="fill:none;stroke:#2b3b4d;stroke-width:1.125;stroke-linecap:round;stroke-linejoin:round;stroke-miterlimit:4;stroke-dasharray:none;stroke-opacity:1"
           id="path30-0-9-7-0-4"
           inkscape:connector-curvature="0" /></g><g
         id="g32-0-9-6-5"
         transform="matrix(0.79097977,0,0,0.79097977,0.96300465,35.936889)"><path
           d="m 38.332,81.887 c 0,0.695 -0.562,1.261 -1.262,1.261 -0.695,0 -1.258,-0.566 -1.258,-1.261 0,-0.696 0.563,-1.262 1.258,-1.262 0.7,0 1.262,0.566 1.262,1.262 z m 4.781,10.871 c 0,0.699 -0.566,1.262 -1.261,1.262 -0.696,0 -1.262,-0.563 -1.262,-1.262 0,-0.696 0.566,-1.262 1.262,-1.262 0.695,0 1.261,0.566 1.261,1.262 z m 5.09,-10.789 c 0,0.695 -0.566,1.261 -1.262,1.261 -0.699,0 -1.261,-0.566 -1.261,-1.261 0,-0.699 0.562,-1.262 1.261,-1.262 0.696,0 1.262,0.563 1.262,1.262 z m 4.438,0.008 c 0,0.699 -0.563,1.261 -1.258,1.261 -0.699,0 -1.262,-0.562 -1.262,-1.261 0,-0.696 0.563,-1.258 1.262,-1.258 0.695,0 1.258,0.562 1.258,1.258 z"
           style="fill:#eeeeec;fill-opacity:1;fill-rule:evenodd;stroke:#2b3b4d;stroke-width:0.75;stroke-linecap:round;stroke-linejoin:round;stroke-miterlimit:4;stroke-dasharray:none;stroke-opacity:1"
           id="path34-8-2-2-2"
           inkscape:connector-curvature="0" /></g></g><flowRoot
       transform="matrix(0.26458333,0,0,0.26458333,98.138921,507.91861)"
       xml:space="preserve"
       id="flowRoot1752-8-3-0-6-5"
       style="font-style:normal;font-variant:normal;font-weight:normal;font-stretch:normal;font-size:40px;line-height:1.25;font-family:cmr10;-inkscape-font-specification:cmr10;letter-spacing:0px;word-spacing:0px;fill:#000000;fill-opacity:1;stroke:none"><flowRegion
         id="flowRegion1754-1-1-2-1-4"><rect
           id="rect1756-2-1-3-8-7"
           width="506.5708"
           height="331.65976"
           x="60.014626"
           y="210.06049" /></flowRegion><flowPara
         id="flowPara1758-8-0-7-7-4"
         style="font-style:normal;font-variant:normal;font-weight:normal;font-stretch:normal;font-family:Lato;-inkscape-font-specification:Lato">viewpoints</flowPara></flowRoot><flowRoot
       transform="matrix(0.26458333,0,0,0.26458333,98.138921,528.24453)"
       xml:space="preserve"
       id="flowRoot1752-8-3-3-5-5-9-4"
       style="font-style:normal;font-variant:normal;font-weight:normal;font-stretch:normal;font-size:40px;line-height:1.25;font-family:cmr10;-inkscape-font-specification:cmr10;letter-spacing:0px;word-spacing:0px;fill:#000000;fill-opacity:1;stroke:none"><flowRegion
         id="flowRegion1754-1-1-3-6-9-2-3"><rect
           id="rect1756-2-1-8-6-2-0-0"
           width="506.5708"
           height="331.65976"
           x="60.014626"
           y="210.06049" /></flowRegion><flowPara
         id="flowPara1758-8-0-0-4-2-2-7"
         style="font-style:normal;font-variant:normal;font-weight:normal;font-stretch:normal;font-family:Lato;-inkscape-font-specification:Lato">viewshed_1</flowPara></flowRoot><flowRoot
       transform="matrix(0.26458333,0,0,0.26458333,98.138921,548.91289)"
       xml:space="preserve"
       id="flowRoot1752-8-3-3-5-0-8-3-8"
       style="font-style:normal;font-variant:normal;font-weight:normal;font-stretch:normal;font-size:40px;line-height:1.25;font-family:cmr10;-inkscape-font-specification:cmr10;letter-spacing:0px;word-spacing:0px;fill:#000000;fill-opacity:1;stroke:none"><flowRegion
         id="flowRegion1754-1-1-3-6-0-9-75-6"><rect
           id="rect1756-2-1-8-6-4-7-9-8"
           width="506.5708"
           height="331.65976"
           x="60.014626"
           y="210.06049" /></flowRegion><flowPara
         id="flowPara1758-8-0-0-4-6-3-2-8"
         style="font-style:normal;font-variant:normal;font-weight:normal;font-stretch:normal;font-family:Lato;-inkscape-font-specification:Lato">viewshed_2</flowPara></flowRoot><g
       id="g2078-2-6-3-4"
       transform="translate(58.586415,468.38151)"><path
         d="m 39.320745,116.2988 h 3.894656 v 3.89465 h -3.894656 z"
         style="fill:#6e97c4;fill-opacity:1;fill-rule:nonzero;stroke:none;stroke-width:0.798904"
         id="path36-4-6-1-6-3"
         inkscape:connector-curvature="0" /><path
         d="m 43.215401,116.2988 h 3.894656 v 3.89465 h -3.894656 z"
         style="fill:#253e5b;fill-opacity:1;fill-rule:nonzero;stroke:none;stroke-width:0.798904"
         id="path38-0-7-2-1-1"
         inkscape:connector-curvature="0" /><path
         d="m 39.320745,120.19345 h 3.894656 v 3.89466 h -3.894656 z"
         style="fill:#253e5b;fill-opacity:1;fill-rule:nonzero;stroke:none;stroke-width:0.798904"
         id="path40-3-5-9-2-4"
         inkscape:connector-curvature="0" /><path
         d="m 43.215401,120.19345 h 3.894656 v 3.89466 h -3.894656 z"
         style="fill:#6d97c4;fill-opacity:1;fill-rule:nonzero;stroke:none;stroke-width:0.798904"
         id="path42-9-6-3-9-9"
         inkscape:connector-curvature="0" /><path
         d="m 35.426091,116.2988 h 3.894654 v 3.89465 h -3.894654 z"
         style="fill:#253e5b;fill-opacity:1;fill-rule:nonzero;stroke:none;stroke-width:0.798904"
         id="path44-1-9-1-3-2"
         inkscape:connector-curvature="0" /><path
         d="m 35.426091,120.19345 h 3.894654 v 3.89466 h -3.894654 z"
         style="fill:#6d97c4;fill-opacity:1;fill-rule:nonzero;stroke:none;stroke-width:0.798904"
         id="path46-9-8-9-1-0"
         inkscape:connector-curvature="0" /><path
         d="m 39.320745,124.08811 h 3.894656 v 3.89467 h -3.894656 z"
         style="fill:#6d97c4;fill-opacity:1;fill-rule:nonzero;stroke:none;stroke-width:0.798904"
         id="path48-6-7-4-9-6"
         inkscape:connector-curvature="0" /><path
         d="m 35.426091,124.08811 h 3.894654 v 3.89467 h -3.894654 z"
         style="fill:#253e5b;fill-opacity:1;fill-rule:nonzero;stroke:none;stroke-width:0.798904"
         id="path50-9-2-7-4-8"
         inkscape:connector-curvature="0" /></g><g
       id="g2078-8-8-7-9"
       transform="translate(58.586415,489.04987)"><path
         d="m 39.320745,116.2988 h 3.894656 v 3.89465 h -3.894656 z"
         style="fill:#6e97c4;fill-opacity:1;fill-rule:nonzero;stroke:none;stroke-width:0.798904"
         id="path36-4-2-4-8-2"
         inkscape:connector-curvature="0" /><path
         d="m 43.215401,116.2988 h 3.894656 v 3.89465 h -3.894656 z"
         style="fill:#253e5b;fill-opacity:1;fill-rule:nonzero;stroke:none;stroke-width:0.798904"
         id="path38-0-9-5-4-6"
         inkscape:connector-curvature="0" /><path
         d="m 39.320745,120.19345 h 3.894656 v 3.89466 h -3.894656 z"
         style="fill:#253e5b;fill-opacity:1;fill-rule:nonzero;stroke:none;stroke-width:0.798904"
         id="path40-3-9-0-5-6"
         inkscape:connector-curvature="0" /><path
         d="m 43.215401,120.19345 h 3.894656 v 3.89466 h -3.894656 z"
         style="fill:#6d97c4;fill-opacity:1;fill-rule:nonzero;stroke:none;stroke-width:0.798904"
         id="path42-9-60-3-0-4"
         inkscape:connector-curvature="0" /><path
         d="m 35.426091,116.2988 h 3.894654 v 3.89465 h -3.894654 z"
         style="fill:#253e5b;fill-opacity:1;fill-rule:nonzero;stroke:none;stroke-width:0.798904"
         id="path44-1-2-6-3-9"
         inkscape:connector-curvature="0" /><path
         d="m 35.426091,120.19345 h 3.894654 v 3.89466 h -3.894654 z"
         style="fill:#6d97c4;fill-opacity:1;fill-rule:nonzero;stroke:none;stroke-width:0.798904"
         id="path46-9-7-1-6-5"
         inkscape:connector-curvature="0" /><path
         d="m 39.320745,124.08811 h 3.894656 v 3.89467 h -3.894656 z"
         style="fill:#6d97c4;fill-opacity:1;fill-rule:nonzero;stroke:none;stroke-width:0.798904"
         id="path48-6-6-0-1-0"
         inkscape:connector-curvature="0" /><path
         d="m 35.426091,124.08811 h 3.894654 v 3.89467 h -3.894654 z"
         style="fill:#253e5b;fill-opacity:1;fill-rule:nonzero;stroke:none;stroke-width:0.798904"
         id="path50-9-1-6-0-4"
         inkscape:connector-curvature="0" /></g><g
       id="g2239-1-3-8"
       transform="translate(189.374,465.37965)"><g
         id="g28-5-9-8-6-71"
         transform="matrix(0.79097977,0,0,0.79097977,0.96106554,35.936889)"><path
           d="m 37.07,81.887 4.766,11.472 5.238,-11.363 4.309,-0.019"
           style="fill:none;stroke:#2b3b4d;stroke-width:1.125;stroke-linecap:round;stroke-linejoin:round;stroke-miterlimit:4;stroke-dasharray:none;stroke-opacity:1"
           id="path30-0-9-7-0-7"
           inkscape:connector-curvature="0" /></g><g
         id="g32-0-9-6-2"
         transform="matrix(0.79097977,0,0,0.79097977,0.96300465,35.936889)"><path
           d="m 38.332,81.887 c 0,0.695 -0.562,1.261 -1.262,1.261 -0.695,0 -1.258,-0.566 -1.258,-1.261 0,-0.696 0.563,-1.262 1.258,-1.262 0.7,0 1.262,0.566 1.262,1.262 z m 4.781,10.871 c 0,0.699 -0.566,1.262 -1.261,1.262 -0.696,0 -1.262,-0.563 -1.262,-1.262 0,-0.696 0.566,-1.262 1.262,-1.262 0.695,0 1.261,0.566 1.261,1.262 z m 5.09,-10.789 c 0,0.695 -0.566,1.261 -1.262,1.261 -0.699,0 -1.261,-0.566 -1.261,-1.261 0,-0.699 0.562,-1.262 1.261,-1.262 0.696,0 1.262,0.563 1.262,1.262 z m 4.438,0.008 c 0,0.699 -0.563,1.261 -1.258,1.261 -0.699,0 -1.262,-0.562 -1.262,-1.261 0,-0.696 0.563,-1.258 1.262,-1.258 0.695,0 1.258,0.562 1.258,1.258 z"
           style="fill:#eeeeec;fill-opacity:1;fill-rule:evenodd;stroke:#2b3b4d;stroke-width:0.75;stroke-linecap:round;stroke-linejoin:round;stroke-miterlimit:4;stroke-dasharray:none;stroke-opacity:1"
           id="path34-8-2-2-7"
           inkscape:connector-curvature="0" /></g></g><flowRoot
       transform="matrix(0.26458333,0,0,0.26458333,220.89411,508.01121)"
       xml:space="preserve"
       id="flowRoot1752-8-3-0-6-2"
       style="font-style:normal;font-variant:normal;font-weight:normal;font-stretch:normal;font-size:40px;line-height:1.25;font-family:cmr10;-inkscape-font-specification:cmr10;letter-spacing:0px;word-spacing:0px;fill:#000000;fill-opacity:1;stroke:none"><flowRegion
         id="flowRegion1754-1-1-2-1-2"><rect
           id="rect1756-2-1-3-8-6"
           width="506.5708"
           height="331.65976"
           x="60.014626"
           y="210.06049" /></flowRegion><flowPara
         id="flowPara1758-8-0-7-7-1"
         style="font-style:normal;font-variant:normal;font-weight:normal;font-stretch:normal;font-family:Lato;-inkscape-font-specification:Lato">streams_1K</flowPara></flowRoot><flowRoot
       transform="matrix(0.26458333,0,0,0.26458333,220.50253,528.24453)"
       xml:space="preserve"
       id="flowRoot1752-8-3-0-6-2-3"
       style="font-style:normal;font-variant:normal;font-weight:normal;font-stretch:normal;font-size:40px;line-height:1.25;font-family:cmr10;-inkscape-font-specification:cmr10;letter-spacing:0px;word-spacing:0px;fill:#000000;fill-opacity:1;stroke:none"><flowRegion
         id="flowRegion1754-1-1-2-1-2-9"><rect
           id="rect1756-2-1-3-8-6-0"
           width="506.5708"
           height="331.65976"
           x="60.014626"
           y="210.06049" /></flowRegion><flowPara
         id="flowPara1758-8-0-7-7-1-8"
         style="font-style:normal;font-variant:normal;font-weight:normal;font-stretch:normal;font-family:Lato;-inkscape-font-specification:Lato">basins_1K</flowPara></flowRoot><flowRoot
       transform="matrix(0.26458333,0,0,0.26458333,228.92691,525.9786)"
       xml:space="preserve"
       id="flowRoot1752-8-3-3-5-5-9-0"
       style="font-style:normal;font-variant:normal;font-weight:normal;font-stretch:normal;font-size:40px;line-height:1.25;font-family:cmr10;-inkscape-font-specification:cmr10;letter-spacing:0px;word-spacing:0px;fill:#000000;fill-opacity:1;stroke:none"><flowRegion
         id="flowRegion1754-1-1-3-6-9-2-6"><rect
           id="rect1756-2-1-8-6-2-0-1"
           width="506.5708"
           height="331.65976"
           x="60.014626"
           y="210.06049" /></flowRegion><flowPara
         id="flowPara1758-8-0-0-4-2-2-5"
         style="font-style:normal;font-variant:normal;font-weight:normal;font-stretch:normal;font-family:Lato;-inkscape-font-specification:Lato" /></flowRoot><flowRoot
       transform="matrix(0.26458333,0,0,0.26458333,220.98936,549.62462)"
       xml:space="preserve"
       id="flowRoot1752-8-3-3-5-0-8-3-9"
       style="font-style:normal;font-variant:normal;font-weight:normal;font-stretch:normal;font-size:40px;line-height:1.25;font-family:cmr10;-inkscape-font-specification:cmr10;letter-spacing:0px;word-spacing:0px;fill:#000000;fill-opacity:1;stroke:none"><flowRegion
         id="flowRegion1754-1-1-3-6-0-9-75-4"><rect
           id="rect1756-2-1-8-6-4-7-9-9"
           width="506.5708"
           height="331.65976"
           x="60.014626"
           y="210.06049" /></flowRegion><flowPara
         id="flowPara1758-8-0-0-4-6-3-2-0"
         style="font-style:normal;font-variant:normal;font-weight:normal;font-stretch:normal;font-family:Lato;-inkscape-font-specification:Lato">flowaccumulation</flowPara></flowRoot><g
       id="g2239-1-3-8-4"
       transform="translate(189.374,485.51508)"><g
         id="g28-5-9-8-6-71-8"
         transform="matrix(0.79097977,0,0,0.79097977,0.96106554,35.936889)"><path
           d="m 37.07,81.887 4.766,11.472 5.238,-11.363 4.309,-0.019"
           style="fill:none;stroke:#2b3b4d;stroke-width:1.125;stroke-linecap:round;stroke-linejoin:round;stroke-miterlimit:4;stroke-dasharray:none;stroke-opacity:1"
           id="path30-0-9-7-0-7-1"
           inkscape:connector-curvature="0" /></g><g
         id="g32-0-9-6-2-2"
         transform="matrix(0.79097977,0,0,0.79097977,0.96300465,35.936889)"><path
           d="m 38.332,81.887 c 0,0.695 -0.562,1.261 -1.262,1.261 -0.695,0 -1.258,-0.566 -1.258,-1.261 0,-0.696 0.563,-1.262 1.258,-1.262 0.7,0 1.262,0.566 1.262,1.262 z m 4.781,10.871 c 0,0.699 -0.566,1.262 -1.261,1.262 -0.696,0 -1.262,-0.563 -1.262,-1.262 0,-0.696 0.566,-1.262 1.262,-1.262 0.695,0 1.261,0.566 1.261,1.262 z m 5.09,-10.789 c 0,0.695 -0.566,1.261 -1.262,1.261 -0.699,0 -1.261,-0.566 -1.261,-1.261 0,-0.699 0.562,-1.262 1.261,-1.262 0.696,0 1.262,0.563 1.262,1.262 z m 4.438,0.008 c 0,0.699 -0.563,1.261 -1.258,1.261 -0.699,0 -1.262,-0.562 -1.262,-1.261 0,-0.696 0.563,-1.258 1.262,-1.258 0.695,0 1.258,0.562 1.258,1.258 z"
           style="fill:#eeeeec;fill-opacity:1;fill-rule:evenodd;stroke:#2b3b4d;stroke-width:0.75;stroke-linecap:round;stroke-linejoin:round;stroke-miterlimit:4;stroke-dasharray:none;stroke-opacity:1"
           id="path34-8-2-2-7-9"
           inkscape:connector-curvature="0" /></g></g><g
       id="g2078-8-8-7-7"
       transform="translate(182.94086,489.04987)"><path
         d="m 39.320745,116.2988 h 3.894656 v 3.89465 h -3.894656 z"
         style="fill:#6e97c4;fill-opacity:1;fill-rule:nonzero;stroke:none;stroke-width:0.798904"
         id="path36-4-2-4-8-6"
         inkscape:connector-curvature="0" /><path
         d="m 43.215401,116.2988 h 3.894656 v 3.89465 h -3.894656 z"
         style="fill:#253e5b;fill-opacity:1;fill-rule:nonzero;stroke:none;stroke-width:0.798904"
         id="path38-0-9-5-4-7"
         inkscape:connector-curvature="0" /><path
         d="m 39.320745,120.19345 h 3.894656 v 3.89466 h -3.894656 z"
         style="fill:#253e5b;fill-opacity:1;fill-rule:nonzero;stroke:none;stroke-width:0.798904"
         id="path40-3-9-0-5-3"
         inkscape:connector-curvature="0" /><path
         d="m 43.215401,120.19345 h 3.894656 v 3.89466 h -3.894656 z"
         style="fill:#6d97c4;fill-opacity:1;fill-rule:nonzero;stroke:none;stroke-width:0.798904"
         id="path42-9-60-3-0-6"
         inkscape:connector-curvature="0" /><path
         d="m 35.426091,116.2988 h 3.894654 v 3.89465 h -3.894654 z"
         style="fill:#253e5b;fill-opacity:1;fill-rule:nonzero;stroke:none;stroke-width:0.798904"
         id="path44-1-2-6-3-5"
         inkscape:connector-curvature="0" /><path
         d="m 35.426091,120.19345 h 3.894654 v 3.89466 h -3.894654 z"
         style="fill:#6d97c4;fill-opacity:1;fill-rule:nonzero;stroke:none;stroke-width:0.798904"
         id="path46-9-7-1-6-6"
         inkscape:connector-curvature="0" /><path
         d="m 39.320745,124.08811 h 3.894656 v 3.89467 h -3.894656 z"
         style="fill:#6d97c4;fill-opacity:1;fill-rule:nonzero;stroke:none;stroke-width:0.798904"
         id="path48-6-6-0-1-3"
         inkscape:connector-curvature="0" /><path
         d="m 35.426091,124.08811 h 3.894654 v 3.89467 h -3.894654 z"
         style="fill:#253e5b;fill-opacity:1;fill-rule:nonzero;stroke:none;stroke-width:0.798904"
         id="path50-9-1-6-0-9"
         inkscape:connector-curvature="0" /></g><flowRoot
       xml:space="preserve"
       id="flowRoot1752-6-6-1-7"
       style="font-style:normal;font-variant:normal;font-weight:normal;font-stretch:normal;font-size:40px;line-height:1.25;font-family:cmr10;-inkscape-font-specification:cmr10;letter-spacing:0px;word-spacing:0px;fill:#000000;fill-opacity:1;stroke:none"
       transform="matrix(0.26458333,0,0,0.26458333,197.95271,488.3445)"><flowRegion
         id="flowRegion1754-7-7-5-6"><rect
           id="rect1756-5-5-5-5"
           width="1174.6663"
           height="280.63211"
           x="60.014626"
           y="210.06049" /></flowRegion><flowPara
         id="flowPara1758-3-3-4-6"
         style="font-style:normal;font-variant:normal;font-weight:normal;font-stretch:normal;font-family:Lato;-inkscape-font-specification:Lato">hydrology</flowPara></flowRoot><flowRoot
       transform="matrix(0.26458333,0,0,0.26458333,77.546514,564.96253)"
       xml:space="preserve"
       id="flowRoot55820"
       style="font-style:normal;font-variant:normal;font-weight:normal;font-stretch:normal;font-size:40px;line-height:1.25;font-family:cmr10;-inkscape-font-specification:cmr10;letter-spacing:0px;word-spacing:0px;fill:#000000;fill-opacity:1;stroke:none"><flowRegion
         id="flowRegion55816"><rect
           id="rect55814"
           width="506.5708"
           height="331.65976"
           x="60.014626"
           y="210.06049" /></flowRegion><flowPara
         id="flowPara55818"
         style="font-style:normal;font-variant:normal;font-weight:normal;font-stretch:normal;font-family:Lato;-inkscape-font-specification:Lato">...</flowPara></flowRoot><flowRoot
       transform="matrix(0.26458333,0,0,0.26458333,201.90096,564.96253)"
       xml:space="preserve"
       id="flowRoot55828"
       style="font-style:normal;font-variant:normal;font-weight:normal;font-stretch:normal;font-size:40px;line-height:1.25;font-family:cmr10;-inkscape-font-specification:cmr10;letter-spacing:0px;word-spacing:0px;fill:#000000;fill-opacity:1;stroke:none"><flowRegion
         id="flowRegion55824"><rect
           id="rect55822"
           width="506.5708"
           height="331.65976"
           x="60.014626"
           y="210.06049" /></flowRegion><flowPara
         id="flowPara55826"
         style="font-style:normal;font-variant:normal;font-weight:normal;font-stretch:normal;font-family:Lato;-inkscape-font-specification:Lato">...</flowPara></flowRoot></g></svg>
