<?xml version="1.0" encoding="UTF-8" standalone="no"?>
<svg
   id="Layer_2"
   data-name="Layer 2"
   viewBox="0 0 300.00002 299.99999"
   version="1.1"
   sodipodi:docname="Uninstall_GRASS.svg"
   xml:space="preserve"
   width="300"
   height="300"
   inkscape:version="1.2.2 (b0a8486541, 2022-12-01)"
   xmlns:inkscape="http://www.inkscape.org/namespaces/inkscape"
   xmlns:sodipodi="http://sodipodi.sourceforge.net/DTD/sodipodi-0.dtd"
   xmlns="http://www.w3.org/2000/svg"
   xmlns:svg="http://www.w3.org/2000/svg"><sodipodi:namedview
     id="namedview19723"
     pagecolor="#ffffff"
     bordercolor="#666666"
     borderopacity="1.0"
     inkscape:showpageshadow="2"
     inkscape:pageopacity="0.0"
     inkscape:pagecheckerboard="0"
     inkscape:deskcolor="#d1d1d1"
     showgrid="false"
     inkscape:zoom="2.4386621"
     inkscape:cx="359.21336"
     inkscape:cy="127.52894"
     inkscape:window-width="3440"
     inkscape:window-height="1371"
     inkscape:window-x="0"
     inkscape:window-y="32"
     inkscape:window-maximized="1"
     inkscape:current-layer="Layer_2" /><defs
     id="defs19707"><style
       id="style19705">
      .cls-1 {
        fill-rule: evenodd;
      }

      .cls-1, .cls-2 {
        fill: #4cb05b;
        stroke-width: 0px;
      }
    </style></defs><path
     class="cls-1"
     d="m 4.1715912,142.73843 c -4.22878825,4.23803 -4.22878825,11.10403 0,15.34207 L 142.3521,296.64039 c 2.30408,2.31334 3.16465,2.35961 3.16465,2.35961 0,0 -0.0648,-0.50893 -0.21283,-0.7125 -0.0833,-0.1203 -1.40651,-2.41514 -1.57308,-2.68348 -7.46746,-11.83506 -15.2773,-25.37273 -22.12478,-38.49401 v 0 c 0,0 0,0 0,0 -1.84142,-3.4515 -3.41451,-6.37556 -4.48789,-8.30952 -2.55394,-4.21953 -4.15476,-6.77346 -5.41323,-8.78145 v 0 c -1.16592,-1.29546 -12.436517,-21.70837 -18.201357,-32.4793 v 0 c 0,0 0,-0.009 0,-0.009 v 0 c -13.306344,-24.42887 -18.793589,-34.5058 -25.742865,-56.47328 -7.698801,-24.3456 -8.744431,-36.33796 -7.088079,-32.88645 19.746683,38.95667 32.978991,52.2445 57.639211,98.54833 -3.65508,-19.64489 -6.57914,-42.66726 -7.31015,-67.87343 22.68924,40.96464 34.404,141.01204 34.404,141.01204 0,0 2.13753,-77.96887 4.67295,-133.50756 -2.0635,-2.47064 -3.78463,-5.73708 -2.23006,-8.16146 1.31398,-2.05425 0.5552,-4.00672 -0.24983,-6.08872 -0.59222,-1.51756 -1.20295,-3.09988 -1.05489,-4.821 0.50893,-5.86664 -1.99873,-10.96524 -3.61807,-14.25945 -0.91609,-1.79514 -1.18443,-2.72973 -2.13753,-4.52489 -1.48979,-2.92407 -3.48852,-6.85674 -2.88705,-10.78943 0.74953,-5.1356 -0.0926,-7.11583 -0.86982,-10.502566 -0.39788,-1.79515 1.26773,-2.998086 2.5817,-3.960438 0.80504,-0.582956 1.48054,-1.073385 1.47128,-1.545309 -0.0185,-0.490427 -0.72176,-1.665611 -1.57306,-3.08137 -1.27697,-2.119021 -2.88706,-4.793244 -2.95183,-6.505117 -0.0741,-1.758139 0.72177,-3.442252 1.43427,-4.959803 v 0 c 0.44416,-0.953097 0.86056,-1.832166 1.00862,-2.618703 0.17581,-0.934588 -0.0926,-3.479264 -0.36089,-6.079461 -0.32386,-3.062863 -0.64773,-6.21826 -0.28685,-6.986289 0.27761,-0.592217 0.19432,-2.035741 0.11104,-3.5718 -0.45342,-6.079461 0.57372,-6.144235 4.89503,-2.322594 0.98086,0.851309 1.84142,1.610084 2.54467,1.961712 1.97097,0.990111 5.46875,2.757503 6.81973,8.873979 1.70263,1.499046 5.45025,5.487244 6.67169,8.300268 1.22144,2.813022 0.0648,13.843034 0.0648,13.843034 0.86981,3.238674 6.56062,7.680292 6.69943,10.965233 0.96235,2.785274 0.37939,12.954714 0.37939,12.954714 0,0 -0.49042,7.03255 -2.31334,9.21636 -1.82291,2.1838 -1.47129,8.07818 -0.91609,10.87269 0.55522,2.79452 -2.3596,7.25465 -2.3596,7.25465 0,0 -0.47193,6.04245 -1.42503,9.41067 -0.61997,2.2023 -3.10911,5.88514 -4.74697,8.17073 -0.59221,24.37336 -1.55456,52.90148 -2.45214,77.21008 1.95246,-4.37684 2.60944,-5.44099 4.97831,-9.29964 4.49714,-7.45822 9.63275,-15.86027 15.41611,-24.66947 v 0 c 8.18923,-12.81591 13.03799,-19.63564 16.06384,-27.63055 2.76675,-6.57914 6.50511,-15.44387 7.51373,-22.03227 2.71125,10.92823 2.74825,24.94708 0.9346,32.09068 -2.70199,9.40141 -14.42601,29.60151 -21.72691,39.22501 v 0 c 0,0 0,0 0,0 v 0 c -6.96778,9.71603 -17.11873,23.86443 -24.09575,36.58781 -0.71252,18.42345 -1.23996,30.82295 -1.23996,30.82295 0,0 6.7642,-28.7502 28.69467,-62.20111 21.93049,-33.45091 44.47168,-75.53522 46.67399,-82.2069 2.19304,-6.67168 9.42918,-29.62002 -1.54532,-53.364155 11.15957,10.900465 21.292,37.337325 16.4895,55.473915 -4.80249,18.1366 -21.93047,52.07795 -33.79329,70.06649 -34.72788,52.66091 -50.03294,77.29335 -50.3383,80.27294 0.45341,-0.33312 0.88831,-0.70325 1.29546,-1.1104 L 295.82841,158.07125 c 4.22879,-4.23805 4.22879,-11.10404 0,-15.34208 L 157.65716,4.1785309 c -4.22879,-4.2380412 -11.07628,-4.2380412 -15.29582,0 z"
     id="path19709" /><g
     id="g25715"
     transform="matrix(0.41458793,0,0,0.41458793,98.30276,66.248176)"><ellipse
       style="opacity:1;fill:#e44747;fill-opacity:1;stroke-width:0.765626;stroke-linejoin:round;-inkscape-stroke:none;paint-order:markers stroke fill;stop-color:#000000"
       id="path23951"
       cx="321.53293"
       cy="399.24988"
       rx="160.14352"
       ry="159.7433" /><path
       id="rect25058"
       style="opacity:1;fill:#e5e1e1;fill-opacity:1;stroke-width:0.690511;stroke-linejoin:round;-inkscape-stroke:none;paint-order:markers stroke fill;stop-color:#000000"
       d="m 406.28695,300.86316 c -8.9068,-8.90686 -23.2471,-8.90685 -32.154,2e-5 l -52.6007,52.60073 -52.6008,-52.60075 c -8.9068,-8.90686 -23.2485,-8.90547 -32.1554,0.001 l -13.6297,13.62976 c -8.9069,8.90686 -8.9083,23.24852 0,32.15538 l 52.6007,52.60076 -52.6007,52.60073 c -8.9069,8.90687 -8.9069,23.24715 0,32.15401 l 13.6312,13.63118 c 8.9068,8.90685 23.2485,8.90826 32.1554,10e-4 l 52.6007,-52.60073 52.6008,52.60075 c 8.9068,8.90686 23.2485,8.90547 32.1554,-10e-4 l 13.6297,-13.62976 c 8.9069,-8.90687 8.9083,-23.24852 0,-32.15538 l -52.6007,-52.60076 52.6007,-52.60073 c 8.9069,-8.90687 8.9055,-23.24856 0,-32.15542 z" /></g></svg>
