#define ff_width 20
#define ff_height 20
static char ff_bits[] = {
   0x00, 0x00, 0x00, 0x0c, 0x03, 0x00, 0x14, 0x05, 0x00, 0x2c, 0x0b, 0x00,
   0x54, 0x15, 0x00, 0xac, 0x2b, 0x00, 0x44, 0x51, 0x00, 0x8c, 0xa3, 0x00,
   0x04, 0x40, 0x01, 0x0c, 0x80, 0x03, 0x04, 0xc0, 0x01, 0x8c, 0xe3, 0x00,
   0xc4, 0x71, 0x00, 0xec, 0x3b, 0x00, 0x74, 0x1d, 0x00, 0x3c, 0x0f, 0x00,
   0x1c, 0x07, 0x00, 0x0c, 0x03, 0x00, 0x00, 0x00, 0x00, 0x00, 0x00, 0x00};
