#define loop_width 20
#define loop_height 20
static char loop_bits[] = {
   0x00, 0x10, 0x00, 0x00, 0xf0, 0x00, 0xa0, 0xa0, 0x03, 0x50, 0x51, 0x05,
   0xe8, 0xa0, 0x06, 0x74, 0x50, 0x03, 0x38, 0xe0, 0x02, 0x34, 0x70, 0x05,
   0x1a, 0x80, 0x06, 0x14, 0x00, 0x05, 0x1a, 0x80, 0x06, 0x14, 0x00, 0x05,
   0x2a, 0x80, 0x06, 0x54, 0x40, 0x03, 0xa8, 0xaa, 0x02, 0x50, 0x55, 0x01,
   0xb0, 0xea, 0x00, 0xc0, 0x3f, 0x00, 0x00, 0x00, 0x00, 0x00, 0x00, 0x00};
