#define play_width 20
#define play_height 20
static char play_bits[] = {
   0x00, 0x00, 0x00, 0xc0, 0x00, 0x00, 0x40, 0x01, 0x00, 0xc0, 0x02, 0x00,
   0x40, 0x05, 0x00, 0xc0, 0x0a, 0x00, 0x40, 0x14, 0x00, 0xc0, 0x28, 0x00,
   0x40, 0x50, 0x00, 0xc0, 0xe0, 0x00, 0x40, 0x70, 0x00, 0xc0, 0x38, 0x00,
   0x40, 0x1c, 0x00, 0xc0, 0x0e, 0x00, 0x40, 0x07, 0x00, 0xc0, 0x03, 0x00,
   0xc0, 0x01, 0x00, 0xc0, 0x00, 0x00, 0x00, 0x00, 0x00, 0x00, 0x00, 0x00};
