#define rabbit_width 20
#define rabbit_height 20
static char rabbit_bits[] = {
   0x00, 0xc0, 0x00, 0x00, 0xcc, 0x00, 0x03, 0xd4, 0x00, 0x07, 0xe8, 0x00,
   0xe5, 0xd1, 0x00, 0xbd, 0xa2, 0x03, 0x45, 0x4d, 0x06, 0xbf, 0x7a, 0x08,
   0x37, 0x95, 0x08, 0x6b, 0x6a, 0x0f, 0x55, 0x95, 0x01, 0xeb, 0xbf, 0x01,
   0x95, 0xbf, 0x01, 0x0a, 0xa0, 0x01, 0x3a, 0xd0, 0x00, 0x46, 0x70, 0x00,
   0xfc, 0x00, 0x00, 0xf8, 0x00, 0x00, 0x00, 0x00, 0x00, 0x00, 0x00, 0x00};
