#define rewind_width 20
#define rewind_height 20
static char rewind_bits[] = {
   0x00, 0x00, 0x00, 0x30, 0x80, 0x01, 0x28, 0x40, 0x01, 0x30, 0xa0, 0x01,
   0x28, 0x50, 0x01, 0x30, 0xa8, 0x01, 0x28, 0x14, 0x01, 0x30, 0x8a, 0x01,
   0x28, 0x05, 0x01, 0xb0, 0x83, 0x01, 0x28, 0x03, 0x01, 0x30, 0x8e, 0x01,
   0x28, 0x1c, 0x01, 0x30, 0xb8, 0x01, 0x28, 0x70, 0x01, 0x30, 0xe0, 0x01,
   0x28, 0xc0, 0x01, 0x38, 0x80, 0x01, 0x00, 0x00, 0x00, 0x00, 0x00, 0x00};
