#define rplay_width 20
#define rplay_height 20
static char rplay_bits[] = {
   0x00, 0x00, 0x00, 0x00, 0x00, 0x00, 0x00, 0x30, 0x00, 0x00, 0x28, 0x00,
   0x00, 0x34, 0x00, 0x00, 0x2a, 0x00, 0x00, 0x35, 0x00, 0x80, 0x22, 0x00,
   0x40, 0x31, 0x00, 0xa0, 0x20, 0x00, 0x70, 0x30, 0x00, 0xe0, 0x20, 0x00,
   0xc0, 0x31, 0x00, 0x80, 0x23, 0x00, 0x00, 0x37, 0x00, 0x00, 0x2e, 0x00,
   0x00, 0x3c, 0x00, 0x00, 0x38, 0x00, 0x00, 0x30, 0x00, 0x00, 0x00, 0x00};
