#define snail_width 20
#define snail_height 20
static char snail_bits[] = {
   0x00, 0x00, 0x00, 0x00, 0x00, 0x00, 0xf8, 0x01, 0x00, 0xfc, 0x07, 0x00,
   0x0e, 0x0f, 0x00, 0x06, 0x1c, 0x00, 0xe3, 0x39, 0x0c, 0x33, 0x33, 0x0c,
   0x11, 0x32, 0x09, 0x91, 0x33, 0x0b, 0x93, 0x3b, 0x0a, 0x33, 0x18, 0x0e,
   0xf3, 0x1f, 0x0e, 0x06, 0x70, 0x0e, 0x06, 0xc0, 0x07, 0x0e, 0xfc, 0x07,
   0x8c, 0xff, 0x07, 0xfe, 0xff, 0x03, 0xff, 0xff, 0x01, 0x00, 0x00, 0x00};
