#define stepb_width 20
#define stepb_height 20
static char stepb_bits[] = {
0x00, 0x00, 0x00,
0x00, 0x8c, 0x01,
0x00, 0x8a, 0x02,
0x00, 0x8d, 0x01,
0x80, 0x8a, 0x02,
0x40, 0x8d, 0x01,
0xa0, 0x88, 0x02,
0x50, 0x8c, 0x01,
0x28, 0x88, 0x02,
0x1c, 0x8c, 0x01,
0x38, 0x88, 0x02,
0x70, 0x8c, 0x01,
0xe0, 0x88, 0x02,
0xc0, 0x8d, 0x01,
0x80, 0x8b, 0x02,
0x00, 0x8f, 0x01,
0x00, 0x8e, 0x02,
0x00, 0x8c, 0x03,
0x00, 0x00, 0x00,
0x00, 0x00, 0x00,
};
