#define stop_width 20
#define stop_height 20
static char stop_bits[] = {
   0x00, 0x00, 0x00, 0x00, 0x00, 0x00, 0xfc, 0xff, 0x03, 0x54, 0x55, 0x01,
   0xac, 0xaa, 0x02, 0x14, 0x80, 0x01, 0x0c, 0x80, 0x02, 0x14, 0x80, 0x01,
   0x0c, 0x80, 0x02, 0x14, 0x80, 0x01, 0x0c, 0x80, 0x02, 0x14, 0x80, 0x01,
   0x0c, 0x80, 0x02, 0x14, 0x80, 0x01, 0x0c, 0x80, 0x02, 0xf4, 0xff, 0x01,
   0xac, 0xaa, 0x02, 0x54, 0x55, 0x01, 0x00, 0x00, 0x00, 0x00, 0x00, 0x00};
