#define swing_width 20
#define swing_height 20
static char swing_bits[] = {
   0x00, 0x00, 0x00, 0x00, 0x00, 0x00, 0x00, 0x00, 0x00, 0x00, 0x00, 0x00,
   0x00, 0x00, 0x00, 0x04, 0x00, 0x02, 0x06, 0x00, 0x06, 0x86, 0x1f, 0x06,
   0xe7, 0x7a, 0x0a, 0x53, 0xd5, 0x0c, 0xab, 0xa8, 0x0d, 0x35, 0x60, 0x0f,
   0x0b, 0x00, 0x0e, 0x0e, 0x00, 0x07, 0x14, 0x80, 0x02, 0x38, 0xc0, 0x01,
   0x00, 0x00, 0x00, 0x00, 0x00, 0x00, 0x00, 0x00, 0x00, 0x00, 0x00, 0x00};
