/* XPM */
static char * grass64_xpm[] = {
"32 32 247 2",
"  	c None",
". 	c #B9B9B9",
"+ 	c #BDBDBD",
"@ 	c #FFFFFF",
"# 	c #C1C1C1",
"$ 	c #C0C1C0",
"% 	c #E8F6E8",
"& 	c #52AD52",
"* 	c #C5C5C5",
"= 	c #BEBEBE",
"- 	c #FDFEFD",
"; 	c #F0F8F0",
"> 	c #008400",
", 	c #D2EBD2",
"' 	c #FCFDFC",
") 	c #C2C2C2",
"! 	c #FEFEFE",
"~ 	c #078E07",
"{ 	c #8CCD8C",
"] 	c #BFBFBF",
"^ 	c #2C9F2C",
"/ 	c #259C25",
"( 	c #FEFFFE",
"_ 	c #C1C2C1",
": 	c #B0B0B0",
"< 	c #7BC57B",
"[ 	c #1A961A",
"} 	c #C0E7C0",
"| 	c #B2B2B2",
"1 	c #E5F4E5",
"2 	c #299C29",
"3 	c #B3DDB3",
"4 	c #ADDFAD",
"5 	c #CAC6CA",
"6 	c #AEAEAE",
"7 	c #F3F9F3",
"8 	c #F6FBF6",
"9 	c #57B457",
"0 	c #A6D8A6",
"a 	c #65BA65",
"b 	c #C3C3C3",
"c 	c #A6A6A6",
"d 	c #84C984",
"e 	c #F5FAF5",
"f 	c #C4E5C4",
"g 	c #FFFEFF",
"h 	c #229D22",
"i 	c #D9EED9",
"j 	c #A5A5A5",
"k 	c #8BC98B",
"l 	c #C6E6C6",
"m 	c #CCE8CC",
"n 	c #C7E6C7",
"o 	c #ECF7EC",
"p 	c #35A235",
"q 	c #FBFDFB",
"r 	c #159515",
"s 	c #A4D7A4",
"t 	c #C3E4C3",
"u 	c #E1F2E1",
"v 	c #4CAE4C",
"w 	c #D3EBD3",
"x 	c #AAAAAA",
"y 	c #DCEFDC",
"z 	c #7FC47F",
"A 	c #6DBB6D",
"B 	c #9CD39C",
"C 	c #F4FAF4",
"D 	c #C2E4C2",
"E 	c #75C275",
"F 	c #109310",
"G 	c #C4C4C4",
"H 	c #9D9D9D",
"I 	c #B2DDB2",
"J 	c #008700",
"K 	c #D8EED8",
"L 	c #FDFDFD",
"M 	c #32A332",
"N 	c #4CAD4C",
"O 	c #979797",
"P 	c #C0C0C0",
"Q 	c #86C986",
"R 	c #A3D6A3",
"S 	c #1D961D",
"T 	c #B7DFB7",
"U 	c #CBE8CB",
"V 	c #F8FCF8",
"W 	c #4AAC4A",
"X 	c #49AD49",
"Y 	c #83C883",
"Z 	c #A8A8A8",
"` 	c #C8E7C8",
" .	c #CFE9CF",
"..	c #229922",
"+.	c #7AC57A",
"@.	c #99D299",
"#.	c #E0F1E0",
"$.	c #E7F4E7",
"%.	c #5CB75C",
"&.	c #42AA42",
"*.	c #98D298",
"=.	c #ACDAAC",
"-.	c #ADADAD",
";.	c #FBFBFB",
">.	c #FAFDFA",
",.	c #55B455",
"'.	c #008800",
").	c #75C375",
"!.	c #D1EAD1",
"~.	c #AEDAAE",
"{.	c #7CC47C",
"].	c #40A740",
"^.	c #6BBE6B",
"/.	c #DBEFDB",
"(.	c #A9A9A9",
"_.	c #909090",
":.	c #C9C9C9",
"<.	c #F9F9F9",
"[.	c #D8EDD8",
"}.	c #E5F3E5",
"|.	c #A8D8A8",
"1.	c #6EBD6E",
"2.	c #37A437",
"3.	c #DEF0DE",
"4.	c #289C28",
"5.	c #5BB35B",
"6.	c #D5EDD5",
"7.	c #29A129",
"8.	c #EEF7EE",
"9.	c #C9E7C9",
"0.	c #FCFEFC",
"a.	c #7A7A7A",
"b.	c #F0F0F0",
"c.	c #505050",
"d.	c #70C070",
"e.	c #34A534",
"f.	c #068D06",
"g.	c #4DB04D",
"h.	c #96D196",
"i.	c #239B23",
"j.	c #41AA41",
"k.	c #9ED49E",
"l.	c #F1F9F1",
"m.	c #7C7C7C",
"n.	c #989898",
"o.	c #4C4C4C",
"p.	c #CACACA",
"q.	c #F7F7F7",
"r.	c #B1DCB1",
"s.	c #A4D6A4",
"t.	c #71BE71",
"u.	c #5BB75B",
"v.	c #048E04",
"w.	c #7FC67F",
"x.	c #B9E0B9",
"y.	c #86CA86",
"z.	c #4CB04C",
"A.	c #848484",
"B.	c #999999",
"C.	c #565656",
"D.	c #FFFBFF",
"E.	c #1F991F",
"F.	c #E9F5E9",
"G.	c #48AD48",
"H.	c #88CB88",
"I.	c #28A028",
"J.	c #229B22",
"K.	c #93CF93",
"L.	c #AEDBAE",
"M.	c #63B963",
"N.	c #8C8C8C",
"O.	c #8B8B8B",
"P.	c #3B3B3B",
"Q.	c #3A3A3A",
"R.	c #CAC9CA",
"S.	c #90CC90",
"T.	c #81C481",
"U.	c #ABDAAB",
"V.	c #39A939",
"W.	c #058C05",
"X.	c #58B358",
"Y.	c #94D094",
"Z.	c #A9DDA9",
"`.	c #949494",
" +	c #000000",
".+	c #E5E5E5",
"++	c #2E2E2E",
"@+	c #333433",
"#+	c #CCCCCC",
"$+	c #008000",
"%+	c #FAFCFA",
"&+	c #62BA62",
"*+	c #048904",
"=+	c #7AC27A",
"-+	c #86C786",
";+	c #199A19",
">+	c #6BC06B",
",+	c #A6B5A6",
"'+	c #9D9E9D",
")+	c #060606",
"!+	c #ADBFAD",
"~+	c #6CB96C",
"{+	c #249E24",
"]+	c #56B556",
"^+	c #0B900B",
"/+	c #1D9F1D",
"(+	c #90AB90",
"_+	c #ABA6AB",
":+	c #262626",
"<+	c #303030",
"[+	c #A7BEA7",
"}+	c #F3F2F3",
"|+	c #58B458",
"1+	c #74C274",
"2+	c #95D495",
"3+	c #3D873D",
"4+	c #A7A4A7",
"5+	c #ACACAC",
"6+	c #393939",
"7+	c #030303",
"8+	c #343434",
"9+	c #D2D3D2",
"0+	c #B8D8B8",
"a+	c #44A644",
"b+	c #BBBFBB",
"c+	c #A7A5A7",
"d+	c #2F2F2F",
"e+	c #020202",
"f+	c #343534",
"g+	c #E2DCE2",
"h+	c #1A921A",
"i+	c #CCC6CC",
"j+	c #B3B3B3",
"k+	c #272727",
"l+	c #313131",
"m+	c #C6D0C6",
"n+	c #B3B2B3",
"o+	c #292929",
"p+	c #252625",
"q+	c #EBEBEB",
"r+	c #EAEAEA",
"s+	c #E9E9E9",
"t+	c #F1F1F1",
"u+	c #222222",
"v+	c #9F9F9F",
"w+	c #C6C6C6",
"x+	c #202020",
"                                .                               ",
"                              + @ #                             ",
"                            + @ @ @ $                           ",
"                          # @ % & @ @ *                         ",
"                        = @ - ; > , ' @ )                       ",
"                      + @ ! ! @ ~ { @ ! @ #                     ",
"                    ] @ ! ! @ @ ^ / @ ( ! @ _                   ",
"                  : @ ! ! @ @ @ < [ @ ( @ @ } _                 ",
"                | @ ! ! @ @ ( - 1 2 @ @ @ @ 3 4 5               ",
"              6 @ 7 8 ! ( ! @ ! ' 9 @ @ @ @ 0 a @ b             ",
"            c @ ! @ d @ @ @ e @ @ f @ g ! @ h i - @ )           ",
"          j @ ! @ ! k l - @ m @ @ n @ @ - o p @ @ @ @ b         ",
"        c @ ! ! @ q @ r @ @ s @ @ t @ - u v w - ! @ @ @ b       ",
"      x ! ! ! @ @ y ; z A @ B C @ D @ @ E F @ @ @ @ @ @ @ G     ",
"    H @ ! ! @ @ @ @ I 8 J K s w q f L I M N @ @ @ @ @ ! ! @ O   ",
"      P @ ! ! @ @ ( @ Q R S f T 7 U V W X Y @ @ @ @ ! ! ! 6     ",
"        Z ! ! ! @ ! - `  ...+.@.#.$.%.&.*.=.- g @ ! ! L -.      ",
"          6 ;.! @ >.@ @ ,.1 '.).!.~.{.].^.C /.@ ! ! @ (.        ",
"          _.:.<.- [.}.q T |.1.2.3.4.5.6.7.8.9.0.! @ G a.b.      ",
"            c.:.<.@ d.@ @ e.@ f.g.h.i.@ j.k.l.- @ b m.n.        ",
"              o.p.q.r.s.! t.U u.v.w.x.U y.z.@ @ G A.B.          ",
"                C.p.D.E.@ F.G.H.I.J.@ K.L.M.@ P N.O.            ",
"                P.Q.R.S.T.@ ^ U.V.W.@ X.Y.Z.) `. +.+            ",
"                  ++@+#+$+%+R &+*+=+-+;+>+,+'+)+                ",
"                    ++@+!+~+@ {+]+@ ^+/+(+_+ +                  ",
"                      :+<+[+}+|+1+@ 2+3+4+ +5+                  ",
"                      6+7+8+9+0+a+@ b+c+ + +Z                   ",
"                        d+e+f+g+h+i+6  + +j+                    ",
"                          k+e+l+m+n+ + +6                       ",
"                            o+e+p+ + +j                         ",
"            q+r+r+r+r+r+r+s+t+u+7+ +v+                          ",
"            G * * * * * * * w+  x+B.  :.p.p.p.p.p.p.p.          "};
