<?xml version="1.0" encoding="UTF-8" standalone="no"?>
<svg
   width="814"
   height="789.82178"
   viewBox="0 0 814 789.8218"
   fill="none"
   version="1.1"
   id="svg2787"
   sodipodi:docname="grass.svg"
   inkscape:version="1.2.2 (b0a8486541, 2022-12-01)"
   xmlns:inkscape="http://www.inkscape.org/namespaces/inkscape"
   xmlns:sodipodi="http://sodipodi.sourceforge.net/DTD/sodipodi-0.dtd"
   xmlns="http://www.w3.org/2000/svg"
   xmlns:svg="http://www.w3.org/2000/svg">
  <defs
     id="defs2791" />
  <sodipodi:namedview
     id="namedview2789"
     pagecolor="#ffffff"
     bordercolor="#666666"
     borderopacity="1.0"
     inkscape:showpageshadow="2"
     inkscape:pageopacity="0.0"
     inkscape:pagecheckerboard="0"
     inkscape:deskcolor="#d1d1d1"
     showgrid="false"
     inkscape:zoom="0.97317375"
     inkscape:cx="600.61217"
     inkscape:cy="425.41222"
     inkscape:window-width="3440"
     inkscape:window-height="1371"
     inkscape:window-x="0"
     inkscape:window-y="32"
     inkscape:window-maximized="1"
     inkscape:current-layer="svg2787" />
  <mask
     id="mask0_129_359"
     maskUnits="userSpaceOnUse"
     x="0"
     y="0"
     width="809"
     height="784">
    <path
       d="m 9.508,413.831 c -12.67732,-12.288 -12.67734,-32.21 -2e-5,-44.498 L 381.046,9.21572 c 12.677,-12.28761 33.231,-12.28763 45.909,-2e-5 L 798.493,369.333 c 12.678,12.288 12.678,32.21 0,44.498 L 426.955,773.947 c -12.678,12.288 -33.232,12.288 -45.909,0 z"
       fill="#ffffff"
       id="path2780" />
  </mask>
  <g
     mask="url(#mask0_129_359)"
     id="g2785"
     transform="translate(2.9998358,3.3293874)">
    <path
       fill-rule="evenodd"
       clip-rule="evenodd"
       d="m 9.05507,377.23 c -11.44126,11.26 -11.44126,29.517 -3e-5,40.777 L 383.282,786.318 c 10.114,9.955 25.785,11.109 37.187,3.463 l -33.447,-6.215 c 0,0 -10.989,-17.437 -15.811,-25.294 -13.279,-20.473 -31.21,-53.366 -44.109,-77.029 l -0.002,-0.005 -0.004,-0.007 c -4.998,-9.169 -9.241,-16.952 -12.164,-22.087 -6.929,-11.221 -11.252,-17.999 -14.656,-23.336 l -0.001,-10e-4 c -8.762,-13.737 -11.437,-17.93 -36.795,-63.795 -4.432,-8.017 -8.584,-15.498 -12.488,-22.532 l -0.008,-0.012 -0.01,-0.021 -0.008,-0.013 c -36.034,-64.92 -50.905,-91.715 -69.711,-150.092 -20.847,-64.714 -23.678,-96.584 -19.19,-87.419 19.58,39.975 38.094,68.697 61.669,105.272 24.047,37.307 53.358,82.781 94.437,156.698 -9.889,-52.218 -17.827,-113.41 -19.809,-180.424 61.437,108.896 93.184,374.834 93.184,374.834 0,0 5.784,-207.247 12.643,-354.888 -5.584,-6.558 -10.239,-15.247 -6.031,-21.704 3.552,-5.45 1.495,-10.656 -0.686,-16.179 -1.593,-4.034 -3.253,-8.237 -2.845,-12.827 1.387,-15.605 -5.409,-29.144 -9.804,-37.9 -1.11,-2.212 -2.067,-4.118 -2.699,-5.675 -0.737,-1.814 -1.848,-3.953 -3.089,-6.342 -4.041,-7.783 -9.46,-18.217 -7.827,-28.692 1.797,-11.513 0.149,-17.983 -1.466,-24.317 -0.305,-1.197 -0.609,-2.391 -0.888,-3.611 -1.088,-4.76 3.426,-7.975 6.992,-10.516 2.189,-1.559 4.021,-2.863 3.983,-4.115 -0.039,-1.315 -1.949,-4.43 -4.251,-8.182 -3.463,-5.645 -7.809,-12.729 -7.996,-17.291 -0.192,-4.667 1.962,-9.154 3.891,-13.176 l 10e-4,-0.001 c 1.211,-2.526 2.334,-4.867 2.735,-6.954 0.477,-2.491 -0.24,-9.239 -0.976,-16.169 -0.865,-8.135 -1.755,-16.523 -0.773,-18.572 0.751,-1.566 0.534,-5.415 0.304,-9.499 -0.327,-5.818 -0.682,-12.113 1.693,-12.971 2.542,-0.919 7.241,3.098 11.561,6.791 2.549,2.18 4.966,4.246 6.73,5.119 l 0.171,0.084 c 5.331,2.636 14.818,7.326 18.457,23.592 4.621,3.974 14.771,14.584 18.08,22.057 3.307,7.473 0.183,36.793 0.183,36.793 1.168,4.054 4.989,8.698 8.826,13.361 4.578,5.563 9.177,11.153 9.314,15.798 2.597,7.412 1.019,34.445 1.019,34.445 0,0 -1.32,18.698 -6.26,24.508 -4.939,5.81 -3.974,21.471 -2.484,28.898 1.49,7.428 -6.384,19.292 -6.384,19.292 0,0 -1.284,16.07 -3.859,25.021 -1.687,5.861 -8.417,15.651 -12.863,21.713 -1.614,64.79 -4.222,140.615 -6.636,205.24 5.281,-11.627 7.059,-14.465 13.473,-24.709 2.769,-4.422 6.401,-10.225 11.552,-18.707 7.885,-12.985 19.065,-29.951 30.21,-46.863 l 10e-4,-10e-4 c 17.488,-26.538 34.887,-52.942 39.318,-63.609 1.229,-2.958 2.65,-6.271 4.179,-9.836 7.501,-17.488 17.607,-41.045 20.355,-58.564 7.334,29.054 7.439,66.302 2.523,85.312 -4.917,19.01 -34.238,70.327 -50.013,92.147 -2.629,3.635 -5.592,7.689 -8.804,12.084 l -0.026,0.036 -0.002,0.002 -10e-4,0.002 -10e-4,0.001 c -18.88,25.831 -46.363,63.431 -65.249,97.261 -1.937,48.972 -3.356,81.921 -3.356,81.921 0,0 18.322,-76.415 77.71,-165.331 59.388,-88.914 120.448,-200.782 126.392,-218.528 5.944,-17.746 25.536,-78.727 -4.195,-141.862 30.214,28.964 57.669,99.252 44.665,147.464 -13.005,48.213 -59.399,138.426 -91.522,186.242 -94.043,139.995 -135.51,205.467 -136.317,213.376 1.228,-0.879 2.402,-1.864 3.509,-2.954 L 798.94,418.007 c 11.441,-11.261 11.441,-29.517 0,-40.777 L 424.714,8.91898 c -11.441,-11.26046 -29.991,-11.26046 -41.432,-2e-5 z"
       fill="#4cb05b"
       stroke="#4cb05b"
       stroke-width="0.968576"
       id="path2783" />
  </g>
</svg>
