#define box_width 9
#define box_height 9
static unsigned char box_bits[] = {
   0xff, 0x01, 0xff, 0x01, 0xff, 0x01, 0xc7, 0x01, 0xc7, 0x01, 0xc7, 0x01,
   0xff, 0x01, 0xff, 0x01, 0xff, 0x01 };
