<?xml version="1.0" encoding="UTF-8" standalone="no"?>
<svg
   xmlns:dc="http://purl.org/dc/elements/1.1/"
   xmlns:cc="http://creativecommons.org/ns#"
   xmlns:rdf="http://www.w3.org/1999/02/22-rdf-syntax-ns#"
   xmlns:svg="http://www.w3.org/2000/svg"
   xmlns="http://www.w3.org/2000/svg"
   xmlns:sodipodi="http://sodipodi.sourceforge.net/DTD/sodipodi-0.dtd"
   xmlns:inkscape="http://www.inkscape.org/namespaces/inkscape"
   inkscape:version="1.0 (4035a4fb49, 2020-05-01)"
   sodipodi:docname="disallow_edits.svg"
   id="svg36"
   version="1.1"
   width="24"
   height="24">
  <metadata
     id="metadata42">
    <rdf:RDF>
      <cc:Work
         rdf:about="">
        <dc:format>image/svg+xml</dc:format>
        <dc:type
           rdf:resource="http://purl.org/dc/dcmitype/StillImage" />
        <dc:title></dc:title>
      </cc:Work>
    </rdf:RDF>
  </metadata>
  <defs
     id="defs40" />
  <sodipodi:namedview
     inkscape:current-layer="svg36"
     inkscape:window-maximized="1"
     inkscape:window-y="-8"
     inkscape:window-x="-8"
     inkscape:cy="12"
     inkscape:cx="12"
     inkscape:zoom="30.625"
     showgrid="false"
     id="namedview38"
     inkscape:window-height="1137"
     inkscape:window-width="1920"
     inkscape:pageshadow="2"
     inkscape:pageopacity="0"
     guidetolerance="10"
     gridtolerance="10"
     objecttolerance="10"
     borderopacity="1"
     bordercolor="#666666"
     pagecolor="#ffffff" />
  <g
     id="g12"
     transform="matrix(1.7963636 0 0 1.7963636 -22.232727 -22.274726)">
    <rect
       id="rect2"
       y="13.5"
       x="13.5"
       width="10"
       stroke-linejoin="round"
       stroke-linecap="square"
       stroke="#c00"
       rx=".857143"
       opacity=".9"
       height="10"
       fill="#c00" />
    <path
       id="path4"
       opacity=".5"
       fill-rule="evenodd"
       fill="#fcffff"
       d="m13.5 18.5h10v-3.333333c0-1.666667 0-1.666667-2.5-1.666667-.581791 0-5.060198 0-5.833333 0-1.666667 0-1.666667 0-1.666667 1.666667z" />
    <g
       id="g10"
       stroke-linecap="round"
       stroke="#eeeeec"
       fill="none">
      <path
         id="path6"
         stroke-width="1.5"
         d="m16.373742 20.64996 4.252516-4.29992" />
      <path
         id="path8"
         transform="matrix(.88888889 0 0 .88888889 1.611111 1.611111)"
         stroke-width="1.6875"
         d="m23.5 19c0 2.485281-2.014719 4.5-4.5 4.5s-4.5-2.014719-4.5-4.5 2.014719-4.5 4.5-4.5 4.5 2.014719 4.5 4.5z" />
    </g>
  </g>
  <g
     id="g34"
     transform="matrix(.56625909 .32692978 -.32692978 .56625909 15.571125 5.856155)"
     stroke-linejoin="round"
     stroke-dashoffset=".5"
     enable-background="new">
    <path
       id="path14"
       stroke-width=".75"
       stroke-linecap="round"
       stroke="#505050"
       fill="#505050"
       d="m8.0961023 18.028419h5.9999997l-3.12491 6.990956z" />
    <path
       id="path16"
       stroke-width=".75"
       stroke-linecap="round"
       stroke="#c04317"
       fill="#de6b37"
       d="m8.0961004 1.0284199 6.0000006-.000001.000001 17.0000001h-5.9999997z" />
    <path
       id="path18"
       stroke-width="2.105985"
       stroke="#f8b008"
       opacity=".5"
       fill="none"
       d="m10.576704 2.1008083.000001 15.7948847" />
    <path
       id="path20"
       stroke-width="2.159348"
       stroke="#632923"
       opacity=".25"
       fill-opacity=".588235"
       d="m12.686221 2.0551469-.080979 16.1486211" />
    <path
       id="path22"
       stroke-width=".75"
       stroke-linecap="round"
       stroke="#a7481e"
       opacity=".5"
       fill="#fc894f"
       d="m12.096101 2.0284193.000001 15.9999997" />
    <path
       id="path24"
       stroke-width=".5"
       stroke-linecap="square"
       stroke="#969696"
       fill="#969696"
       d="m11.463292 23.228968 1.996957-4.943779-1.996957-.000001z" />
    <path
       id="path26"
       stroke-width=".75"
       stroke-linecap="round"
       stroke="#9b3819"
       opacity=".5"
       fill="#db562d"
       d="m9.5961007 2.0284198.0000015 15.9999982" />
    <g
       id="g32"
       stroke-width=".5"
       fill="#e6e6e6">
      <path
         id="path28"
         stroke-linecap="round"
         stroke="#969696"
         d="m7.8653316-.08727704h6.4615374v2.1791313h-6.4615374z" />
      <path
         id="path30"
         stroke-linecap="square"
         stroke="#e6e6e6"
         d="m10.728912 23.38728-1.9969556-5.102091h1.9969556z" />
    </g>
  </g>
</svg>
