<?xml version="1.0" encoding="UTF-8" standalone="no"?>
<!-- Created with Inkscape (http://www.inkscape.org/) -->

<svg
   width="30mm"
   height="30mm"
   viewBox="0 0 30 30"
   version="1.1"
   id="svg5"
   inkscape:version="1.1.2 (0a00cf5339, 2022-02-04)"
   sodipodi:docname="jupyter.svg"
   xmlns:inkscape="http://www.inkscape.org/namespaces/inkscape"
   xmlns:sodipodi="http://sodipodi.sourceforge.net/DTD/sodipodi-0.dtd"
   xmlns="http://www.w3.org/2000/svg"
   xmlns:svg="http://www.w3.org/2000/svg">
  <sodipodi:namedview
     id="namedview7"
     pagecolor="#ffffff"
     bordercolor="#666666"
     borderopacity="1.0"
     inkscape:pageshadow="2"
     inkscape:pageopacity="0.0"
     inkscape:pagecheckerboard="0"
     inkscape:document-units="mm"
     showgrid="false"
     inkscape:zoom="5.5731762"
     inkscape:cx="63.608253"
     inkscape:cy="67.735163"
     inkscape:window-width="1874"
     inkscape:window-height="1016"
     inkscape:window-x="0"
     inkscape:window-y="0"
     inkscape:window-maximized="1"
     inkscape:current-layer="layer1" />
  <defs
     id="defs2" />
  <g
     inkscape:label="Layer 1"
     inkscape:groupmode="layer"
     id="layer1">
    <g
       id="g1816"
       style="stroke:none"
       inkscape:export-filename="/home/linduska/grass/gui/icons/grass/jupyter.png"
       inkscape:export-xdpi="20.32"
       inkscape:export-ydpi="20.32"
       transform="matrix(1.0220486,0,0,1,-114.28915,-180)">
      <g
         id="g847"
         transform="matrix(1.060545,0,0,1.0732617,109.53073,177.8562)"
         inkscape:export-filename="/home/linduska/grass/gui/icons/grass/jupyter.png"
         inkscape:export-xdpi="24.041059"
         inkscape:export-ydpi="24.041059"
         style="stroke:none">
        <path
           d="M 26.233,3.588 A 1.69,1.69 0 1 1 24.473,2 a 1.67,1.67 0 0 1 1.76,1.585 z"
           style="fill:#767677;stroke:none"
           id="path826" />
        <path
           d="m 16.375,23.111 c -4.487,0 -8.43,-1.61 -10.469,-3.988 a 11.162,11.162 0 0 0 20.938,0 C 24.81,21.5 20.882,23.111 16.375,23.111 Z"
           style="fill:#f37726;stroke:none"
           id="path828" />
        <path
           d="m 16.375,7.648 c 4.487,0 8.43,1.61 10.469,3.988 a 11.162,11.162 0 0 0 -20.938,0 C 7.945,9.253 11.869,7.648 16.375,7.648 Z"
           style="fill:#f37726;stroke:none"
           id="path830" />
        <path
           d="m 10.2,27.739 a 2.109,2.109 0 1 1 -0.2,-0.8 2.129,2.129 0 0 1 0.2,0.8 z"
           style="fill:#9e9e9e;stroke:none"
           id="path832" />
        <path
           d="M 6.416,7.106 A 1.226,1.226 0 1 1 7.608,5.83 1.241,1.241 0 0 1 6.416,7.106 Z"
           style="fill:#616262;stroke:none"
           id="path834" />
      </g>
      <rect
         style="fill:none;fill-opacity:0;stroke:none;stroke-width:0.647188"
         id="rect1345"
         width="29.352812"
         height="29.352812"
         x="111.82359"
         y="180.32359" />
    </g>
  </g>
</svg>
