<?xml version="1.0" encoding="UTF-8" standalone="no"?>
<svg
   xmlns:dc="http://purl.org/dc/elements/1.1/"
   xmlns:cc="http://creativecommons.org/ns#"
   xmlns:rdf="http://www.w3.org/1999/02/22-rdf-syntax-ns#"
   xmlns:svg="http://www.w3.org/2000/svg"
   xmlns="http://www.w3.org/2000/svg"
   xmlns:sodipodi="http://sodipodi.sourceforge.net/DTD/sodipodi-0.dtd"
   xmlns:inkscape="http://www.inkscape.org/namespaces/inkscape"
   inkscape:export-ydpi="96"
   inkscape:export-xdpi="96"
   inkscape:export-filename="C:\Users\kladivoval\Desktop\location-add.png"
   id="svg8"
   version="1.1"
   viewBox="0 0 6.3499999 6.3499999"
   height="24"
   width="24"
   sodipodi:docname="location-add.svg"
   inkscape:version="1.0 (4035a4fb49, 2020-05-01)">
  <sodipodi:namedview
     inkscape:document-rotation="0"
     pagecolor="#ffffff"
     bordercolor="#666666"
     borderopacity="1"
     objecttolerance="10"
     gridtolerance="10"
     guidetolerance="10"
     inkscape:pageopacity="0"
     inkscape:pageshadow="2"
     inkscape:window-width="1920"
     inkscape:window-height="1137"
     id="namedview23"
     showgrid="false"
     inkscape:zoom="18.863213"
     inkscape:cx="6.1128494"
     inkscape:cy="12"
     inkscape:window-x="-8"
     inkscape:window-y="-8"
     inkscape:window-maximized="1"
     inkscape:current-layer="svg8" />
  <defs
     id="defs2" />
  <metadata
     id="metadata5">
    <rdf:RDF>
      <cc:Work
         rdf:about="">
        <dc:format>image/svg+xml</dc:format>
        <dc:type
           rdf:resource="http://purl.org/dc/dcmitype/StillImage" />
        <dc:title />
      </cc:Work>
    </rdf:RDF>
  </metadata>
  <g
     id="g108"
     transform="matrix(0.26458333,0,0,0.26458333,0.01182026,-2.0310632)"
     fill="none">
    <g
       id="g104"
       stroke-width="0.8"
       stroke="#5489c4">
      <path
         id="path94"
         d="m 12.000001,10.286844 c 7.115911,3.532057 6.099353,16.777269 0,19.426312" />
      <path
         id="path96"
         d="M 0.81785277,20.000001 H 23.182148" />
      <path
         id="path98"
         d="m 2.1902082,14.688719 c 5.6927292,0.758755 13.8252008,0.758755 19.5179298,0" />
      <path
         id="path100"
         d="m 2.1902082,25.311281 c 5.6927292,-0.758754 13.8252008,-0.758754 19.5179298,0" />
      <path
         id="path102"
         d="m 12.000001,10.286844 c -6.0993537,2.649043 -7.1159126,15.894256 0,19.426312" />
    </g>
    <path
       id="path106"
       transform="matrix(0.94418617,0,0,0.8171557,16.859375,8.715626)"
       stroke-width="1.28353"
       stroke="#3e74b2"
       d="m 6.9656949,13.809332 a 12.112323,12.156691 0 1 1 -24.2246459,0 12.112323,12.156691 0 1 1 24.2246459,0 z"
       inkscape:export-xdpi="96"
       inkscape:export-ydpi="96" />
  </g>
  <g
     id="g844"
     transform="matrix(0.21452698,0,0,0.21452698,-0.48540003,-0.51719001)">
    <rect
       inkscape:export-ydpi="96"
       inkscape:export-xdpi="96"
       id="rect836"
       y="19"
       x="19"
       width="13"
       ry="2.6149368"
       rx="2.6149371"
       height="13"
       style="fill:#5a8c5a" />
    <path
       id="path838"
       style="overflow:visible;fill:#ffffff;fill-rule:evenodd;stroke:#ffffff;stroke-width:2.6;stroke-linecap:round;stroke-linejoin:round"
       d="m 21.6,25.499999 h 7.8" />
    <path
       inkscape:export-ydpi="96"
       inkscape:export-xdpi="96"
       id="path840"
       style="overflow:visible;fill:#ffffff;fill-rule:evenodd;stroke:#ffffff;stroke-width:2.6;stroke-linecap:round;stroke-linejoin:round"
       d="M 25.5,29.399999 V 21.6" />
    <path
       inkscape:export-ydpi="96"
       inkscape:export-xdpi="96"
       id="path842"
       d="m 20.3,25.499999 h 10.4 c 0,0 0,0 0,-2.6 C 30.7,20.3 30.05,20.3 25.5,20.3 c -4.55,0 -5.2,0 -5.2,2.599999 0,2.6 0,2.6 0,2.6 z"
       style="opacity:0.3;fill:#fcffff;fill-rule:evenodd" />
  </g>
</svg>
