<?xml version="1.0" encoding="UTF-8" standalone="no"?>
<svg
   xmlns:dc="http://purl.org/dc/elements/1.1/"
   xmlns:cc="http://creativecommons.org/ns#"
   xmlns:rdf="http://www.w3.org/1999/02/22-rdf-syntax-ns#"
   xmlns:svg="http://www.w3.org/2000/svg"
   xmlns="http://www.w3.org/2000/svg"
   xmlns:sodipodi="http://sodipodi.sourceforge.net/DTD/sodipodi-0.dtd"
   xmlns:inkscape="http://www.inkscape.org/namespaces/inkscape"
   inkscape:version="1.0 (4035a4fb49, 2020-05-01)"
   sodipodi:docname="location-download.svg"
   width="24"
   height="24"
   viewBox="0 0 6.3499999 6.3499999"
   version="1.1"
   id="svg8"
   inkscape:export-filename="C:\Users\kladivoval\Desktop\location-download.png"
   inkscape:export-xdpi="96"
   inkscape:export-ydpi="96">
  <sodipodi:namedview
     inkscape:current-layer="svg8"
     inkscape:window-maximized="1"
     inkscape:window-y="-8"
     inkscape:window-x="-8"
     inkscape:cy="12"
     inkscape:cx="12.929979"
     inkscape:zoom="30.625"
     showgrid="false"
     id="namedview23"
     inkscape:window-height="1137"
     inkscape:window-width="1920"
     inkscape:pageshadow="2"
     inkscape:pageopacity="0"
     guidetolerance="10"
     gridtolerance="10"
     objecttolerance="10"
     borderopacity="1"
     bordercolor="#666666"
     pagecolor="#ffffff"
     inkscape:document-rotation="0" />
  <defs
     id="defs2" />
  <metadata
     id="metadata5">
    <rdf:RDF>
      <cc:Work
         rdf:about="">
        <dc:format>image/svg+xml</dc:format>
        <dc:type
           rdf:resource="http://purl.org/dc/dcmitype/StillImage" />
        <dc:title />
      </cc:Work>
    </rdf:RDF>
  </metadata>
  <g
     fill="none"
     transform="matrix(0.26458333,0,0,0.26458333,0.01182026,-2.0310632)"
     id="g108">
    <g
       stroke="#5489c4"
       stroke-width="0.8"
       id="g104">
      <path
         d="m 12.000001,10.286844 c 7.115911,3.532057 6.099353,16.777269 0,19.426312"
         id="path94" />
      <path
         d="M 0.81785277,20.000001 H 23.182148"
         id="path96" />
      <path
         d="m 2.1902082,14.688719 c 5.6927292,0.758755 13.8252008,0.758755 19.5179298,0"
         id="path98" />
      <path
         d="m 2.1902082,25.311281 c 5.6927292,-0.758754 13.8252008,-0.758754 19.5179298,0"
         id="path100" />
      <path
         d="m 12.000001,10.286844 c -6.0993537,2.649043 -7.1159126,15.894256 0,19.426312"
         id="path102" />
    </g>
    <path
       inkscape:export-ydpi="96"
       inkscape:export-xdpi="96"
       d="m 6.9656949,13.809332 a 12.112323,12.156691 0 1 1 -24.2246459,0 12.112323,12.156691 0 1 1 24.2246459,0 z"
       stroke="#3e74b2"
       stroke-width="1.28353"
       transform="matrix(0.94418617,0,0,0.8171557,16.859375,8.715626)"
       id="path106" />
  </g>
  <rect
     inkscape:export-ydpi="96"
     inkscape:export-xdpi="96"
     fill="#3c5a6e"
     height="2.7721853"
     rx="0.50655389"
     width="2.7721853"
     x="3.5956585"
     y="3.5754879"
     id="rect171"
     style="stroke-width:0.252016" />
  <path
     inkscape:export-ydpi="96"
     inkscape:export-xdpi="96"
     d="m 3.7758801,5.0554289 2.4745562,-0.00276 v -0.549895 c 0,-0.8221024 -0.2749506,-0.8221024 -1.2372781,-0.8221024 -0.9623273,0 -1.2372781,0 -1.2372781,0.824852 z"
     fill="#fcffff"
     fill-rule="evenodd"
     opacity="0.3"
     id="path173"
     style="stroke-width:0.27495" />
  <g
     fill="none"
     stroke="#ffffff"
     stroke-linecap="round"
     stroke-linejoin="round"
     id="g179"
     transform="matrix(0.29150493,0,0,0.29150493,-0.43979886,-0.40841962)">
    <path
       inkscape:export-ydpi="96"
       inkscape:export-xdpi="96"
       d="m 17.7,15.75 h -2.5 v 5.5 h 2.5"
       stroke-width="1.5"
       id="path175" />
    <path
       inkscape:export-ydpi="96"
       inkscape:export-xdpi="96"
       d="m 19.493,20.48 -1.5,-1.99 1.5,-1.99 m 3.007,1.98 h -3.397"
       id="path177" />
  </g>
</svg>
