<?xml version="1.0" encoding="UTF-8" standalone="no"?>
<svg
   xmlns:dc="http://purl.org/dc/elements/1.1/"
   xmlns:cc="http://creativecommons.org/ns#"
   xmlns:rdf="http://www.w3.org/1999/02/22-rdf-syntax-ns#"
   xmlns:svg="http://www.w3.org/2000/svg"
   xmlns="http://www.w3.org/2000/svg"
   width="24"
   height="24"
   viewBox="0 0 6.3499999 6.3499999"
   version="1.1"
   id="svg8">
  <defs
     id="defs2" />
  <metadata
     id="metadata5">
    <rdf:RDF>
      <cc:Work
         rdf:about="">
        <dc:format>image/svg+xml</dc:format>
        <dc:type
           rdf:resource="http://purl.org/dc/dcmitype/StillImage" />
        <dc:title></dc:title>
      </cc:Work>
    </rdf:RDF>
  </metadata>
  <g
     style="fill:none;stroke-width:1.03626227"
     transform="matrix(0.2553238,0,0,0.25532554,0.01703996,-2.1568621)"
     id="g108">
    <g
       style="stroke:#5489c4;stroke-width:0.82900983"
       id="g104">
      <path
         style="stroke-width:0.82900983"
         d="m 12.000001,10.286844 c 7.115911,3.532057 6.099353,16.777269 0,19.426312"
         id="path94" />
      <path
         style="stroke-width:0.82900983"
         d="M 0.81785277,20.000001 H 23.182148"
         id="path96" />
      <path
         style="stroke-width:0.82900983"
         d="m 2.1902082,14.688719 c 5.6927292,0.758755 13.8252008,0.758755 19.5179298,0"
         id="path98" />
      <path
         style="stroke-width:0.82900983"
         d="m 2.1902082,25.311281 c 5.6927292,-0.758754 13.8252008,-0.758754 19.5179298,0"
         id="path100" />
      <path
         style="stroke-width:0.82900983"
         d="m 12.000001,10.286844 c -6.0993537,2.649043 -7.1159126,15.894256 0,19.426312"
         id="path102" />
    </g>
    <path
       style="stroke:#3e74b2;stroke-width:1.33007383"
       d="m 6.9656949,13.809332 a 12.112323,12.156691 0 1 1 -24.2246459,0 12.112323,12.156691 0 1 1 24.2246459,0 z"
       transform="matrix(0.94418617,0,0,0.8171557,16.859375,8.715626)"
       id="path106" />
  </g>
  <g
     transform="matrix(0.21452698,0,0,0.21452698,-0.48540003,-0.51719001)"
     id="g844">
    <rect
       style="fill:#5a8c5a"
       height="13"
       rx="2.6149371"
       ry="2.6149368"
       width="13"
       x="19"
       y="19"
       id="rect836" />
    <path
       d="m 21.6,25.499999 h 7.8"
       style="overflow:visible;fill:#ffffff;fill-rule:evenodd;stroke:#ffffff;stroke-width:2.6;stroke-linecap:round;stroke-linejoin:round"
       id="path838" />
    <path
       d="M 25.5,29.399999 V 21.6"
       style="overflow:visible;fill:#ffffff;fill-rule:evenodd;stroke:#ffffff;stroke-width:2.6;stroke-linecap:round;stroke-linejoin:round"
       id="path840" />
    <path
       style="opacity:0.3;fill:#fcffff;fill-rule:evenodd"
       d="m 20.3,25.499999 h 10.4 c 0,0 0,0 0,-2.6 C 30.7,20.3 30.05,20.3 25.5,20.3 c -4.55,0 -5.2,0 -5.2,2.599999 0,2.6 0,2.6 0,2.6 z"
       id="path842" />
  </g>
</svg>
