<?xml version="1.0" encoding="UTF-8" standalone="no"?>
<svg
   xmlns:dc="http://purl.org/dc/elements/1.1/"
   xmlns:cc="http://creativecommons.org/ns#"
   xmlns:rdf="http://www.w3.org/1999/02/22-rdf-syntax-ns#"
   xmlns:svg="http://www.w3.org/2000/svg"
   xmlns="http://www.w3.org/2000/svg"
   id="svg8"
   version="1.1"
   viewBox="0 0 6.3499999 6.3499999"
   height="24"
   width="24">
  <defs
     id="defs2" />
  <metadata
     id="metadata5">
    <rdf:RDF>
      <cc:Work
         rdf:about="">
        <dc:format>image/svg+xml</dc:format>
        <dc:type
           rdf:resource="http://purl.org/dc/dcmitype/StillImage" />
        <dc:title></dc:title>
      </cc:Work>
    </rdf:RDF>
  </metadata>
  <g
     style="fill:none;stroke-width:1.03626227"
     id="g108"
     transform="matrix(0.2553238,0,0,0.25532554,0.01703996,-2.2342277)">
    <g
       style="stroke:#5489c4;stroke-width:0.82900983"
       id="g104">
      <path
         style="stroke-width:0.82900983"
         id="path94"
         d="m 12.000001,10.286844 c 7.115911,3.532057 6.099353,16.777269 0,19.426312" />
      <path
         style="stroke-width:0.82900983"
         id="path96"
         d="M 0.81785277,20.000001 H 23.182148" />
      <path
         style="stroke-width:0.82900983"
         id="path98"
         d="m 2.1902082,14.688719 c 5.6927292,0.758755 13.8252008,0.758755 19.5179298,0" />
      <path
         style="stroke-width:0.82900983"
         id="path100"
         d="m 2.1902082,25.311281 c 5.6927292,-0.758754 13.8252008,-0.758754 19.5179298,0" />
      <path
         style="stroke-width:0.82900983"
         id="path102"
         d="m 12.000001,10.286844 c -6.0993537,2.649043 -7.1159126,15.894256 0,19.426312" />
    </g>
    <path
       style="stroke:#3e74b2;stroke-width:1.33007383"
       id="path106"
       transform="matrix(0.94418617,0,0,0.8171557,16.859375,8.715626)"
       d="m 6.9656949,13.809332 a 12.112323,12.156691 0 1 1 -24.2246459,0 12.112323,12.156691 0 1 1 24.2246459,0 z" />
  </g>
  <rect
     fill="#3c5a6e"
     style="stroke-width:0.252016"
     id="rect171"
     y="3.5754879"
     x="3.5956585"
     width="2.7721853"
     rx="0.50655389"
     height="2.7721853" />
  <path
     opacity="0.3"
     fill="#fcffff"
     fill-rule="evenodd"
     style="stroke-width:0.27495"
     id="path173"
     d="m 3.7758801,5.0554289 2.4745562,-0.00276 v -0.549895 c 0,-0.8221024 -0.2749506,-0.8221024 -1.2372781,-0.8221024 -0.9623273,0 -1.2372781,0 -1.2372781,0.824852 z" />
  <path
     d="M 4.6162555,4.0877152 H 4.0948412 v 1.7934144 h 0.5336323"
     id="path175"
     style="fill:none;stroke:#ffffff;stroke-width:0.30506459;stroke-linecap:round;stroke-linejoin:round;stroke-miterlimit:4;stroke-dasharray:none" />
  <path
     d="M 5.3115655,5.7171115 4.8280238,4.9815065 5.2942866,4.2631804 M 6.0557555,4.9785915 H 5.1027331"
     id="path177"
     style="fill:none;stroke:#ffffff;stroke-width:0.26511249;stroke-linecap:round;stroke-linejoin:round;stroke-miterlimit:4;stroke-dasharray:none" />
  <path
     id="path826"
     d="M 4.6162555,4.0877152 V 4.3715309"
     style="opacity:1;vector-effect:none;fill:none;fill-opacity:1;stroke:#ffffff;stroke-width:0.30506459;stroke-linecap:round;stroke-linejoin:round;stroke-miterlimit:4;stroke-dasharray:none;stroke-dashoffset:0;stroke-opacity:1" />
  <path
     id="path826-5"
     d="M 4.6284735,5.5973139 V 5.8811296"
     style="opacity:1;vector-effect:none;fill:none;fill-opacity:1;stroke:#ffffff;stroke-width:0.30506459;stroke-linecap:round;stroke-linejoin:round;stroke-miterlimit:4;stroke-dasharray:none;stroke-dashoffset:0;stroke-opacity:1" />
</svg>
