<?xml version="1.0" encoding="UTF-8" standalone="no"?>
<svg
   height="24"
   width="24"
   version="1.1"
   id="svg866"
   sodipodi:docname="time-period.svg"
   inkscape:version="1.1.2 (0a00cf5339, 2022-02-04)"
   xmlns:inkscape="http://www.inkscape.org/namespaces/inkscape"
   xmlns:sodipodi="http://sodipodi.sourceforge.net/DTD/sodipodi-0.dtd"
   xmlns="http://www.w3.org/2000/svg"
   xmlns:svg="http://www.w3.org/2000/svg">
  <defs
     id="defs870" />
  <sodipodi:namedview
     id="namedview868"
     pagecolor="#ffffff"
     bordercolor="#666666"
     borderopacity="1.0"
     inkscape:pageshadow="2"
     inkscape:pageopacity="0.0"
     inkscape:pagecheckerboard="0"
     showgrid="false"
     inkscape:lockguides="true"
     inkscape:zoom="34.271546"
     inkscape:cx="13.436803"
     inkscape:cy="11.394292"
     inkscape:window-width="1846"
     inkscape:window-height="1016"
     inkscape:window-x="0"
     inkscape:window-y="0"
     inkscape:window-maximized="1"
     inkscape:current-layer="svg866" />
  <path
     d="M 12.003996,0.08800817 A 11.931988,11.931988 0 0 1 23.935984,12.019996 c 0,6.572221 -5.359767,11.931988 -11.931988,11.931988 A 11.931988,11.931988 0 0 1 0.07200817,12.019996 11.907919,11.907919 0 0 1 12.003996,0.08800817 Z m 0,21.22094683 c 5.140141,0 9.288959,-4.186425 9.288959,-9.326566 A 9.2754207,9.2754207 0 0 0 12.003996,2.6949339 c -5.1401415,0 -9.3265664,4.1488177 -9.3265664,9.2874551 0,5.140141 4.1864249,9.326566 9.3265664,9.326566 z m 3.52454,-7.85688 h -3.74567 c -0.403148,0 -0.732587,-0.14742 -0.953717,-0.440755 L 6.6066218,8.4217465 C 5.4693824,7.2107972 7.3407128,5.4477753 8.5170636,6.6226218 l 3.8178754,4.1849202 h 3.193597 c 1.799124,0 1.615601,2.644533 0,2.644533 z M 11.269905,5.0070198 A 0.72205675,0.72205675 0 0 1 11.967893,4.3090316 0.72205675,0.72205675 0 0 1 12.664377,5.0070198 0.72205675,0.72205675 0 0 1 11.967893,5.705008 0.72205675,0.72205675 0 0 1 11.269905,5.0070198 Z m 4.882909,1.9104418 a 0.72205675,0.72205675 0 0 1 0.697988,-0.6979882 0.72205675,0.72205675 0 0 1 0.696484,0.6964839 0.72205675,0.72205675 0 0 1 -0.696484,0.6979882 0.72205675,0.72205675 0 0 1 -0.697988,-0.6979882 z m 2.16617,5.0288244 a 0.72205675,0.72205675 0 0 1 0.697988,-0.697988 0.72205675,0.72205675 0 0 1 0.697988,0.697988 0.72205675,0.72205675 0 0 1 -0.697988,0.697988 0.72205675,0.72205675 0 0 1 -0.697988,-0.697988 z m -1.94504,4.919012 a 0.72205675,0.72205675 0 0 1 0.696484,-0.696484 0.72205675,0.72205675 0 0 1 0.697988,0.697988 0.72205675,0.72205675 0 0 1 -0.697988,0.696484 0.72205675,0.72205675 0 0 1 -0.696484,-0.696484 z m -5.14315,2.131571 a 0.72205675,0.72205675 0 0 1 0.697988,-0.697988 0.72205675,0.72205675 0 0 1 0.697988,0.697988 0.72205675,0.72205675 0 0 1 -0.697988,0.697989 0.72205675,0.72205675 0 0 1 -0.696484,-0.697989 z M 6.4592018,17.086428 a 0.72205675,0.72205675 0 0 1 0.696484,-0.696484 0.72205675,0.72205675 0 0 1 0.6979881,0.697988 0.72205675,0.72205675 0 0 1 -0.6979881,0.697988 0.72205675,0.72205675 0 0 1 -0.696484,-0.697988 z M 4.2569288,11.94779 A 0.72205675,0.72205675 0 0 1 4.954917,11.249802 0.72205675,0.72205675 0 0 1 5.6529051,11.94779 0.72205675,0.72205675 0 0 1 4.954917,12.645779 0.72205675,0.72205675 0 0 1 4.2569288,11.94779 Z"
     fill="#555555"
     id="path864"
     style="stroke-width:1.50428" />
</svg>
